<?xml version="1.0" encoding="UTF-8"?>
<!-- Generator: visioncortex VTracer 0.6.3 -->
<svg version="1.1" xmlns="http://www.w3.org/2000/svg" viewBox="410 0 400 800">
<path d="M0 0 C422.4 0 844.8 0 1280 0 C1280 253.44 1280 506.88 1280 768 C857.6 768 435.2 768 0 768 C0 514.56 0 261.12 0 0 Z " fill="#FAFCFC" transform="translate(0,0)"/>
<path d="M0 0 C1.04 -0 2.09 -0 3.16 -0 C20.16 0.01 36.73 0.75 53.56 3.25 C55.03 3.46 55.03 3.46 56.54 3.67 C94.35 9.16 133.49 20.76 167.05 39.34 C170.34 41.16 173.72 42.77 177.12 44.38 C199.53 55.55 219.41 71.28 238.56 87.25 C241.39 89.54 244.22 91.83 247.05 94.11 C249.7 96.37 252.12 98.77 254.56 101.25 C255.53 102.19 256.49 103.13 257.46 104.07 C258.43 105.03 259.4 105.98 260.38 106.94 C260.88 107.42 261.38 107.91 261.9 108.41 C263.16 109.65 264.36 110.95 265.56 112.25 C265.56 112.91 265.56 113.57 265.56 114.25 C266.22 114.25 266.88 114.25 267.56 114.25 C268.97 115.65 268.97 115.65 270.62 117.62 C273.35 120.84 276.14 123.97 279 127.06 C283.61 132.19 287.58 137.63 291.56 143.25 C292.56 144.62 293.56 145.99 294.57 147.35 C306.99 164.29 317.79 181.65 327.56 200.25 C327.95 200.98 328.33 201.7 328.72 202.45 C347.21 237.72 358.65 275.93 364.56 315.25 C364.67 315.99 364.79 316.72 364.9 317.48 C365.54 321.73 366.11 325.98 366.56 330.25 C366.65 331.07 366.74 331.89 366.83 332.74 C367.87 344.09 367.81 355.48 367.81 366.88 C367.81 367.97 367.81 369.06 367.82 370.18 C367.81 386.75 367.19 402.87 364.56 419.25 C364.42 420.2 364.28 421.14 364.14 422.12 C358.63 459.62 347.2 496.67 329.56 530.25 C319.41 529.25 309.42 527.75 299.38 526 C282.87 523.15 266.27 521.05 249.65 518.94 C235.76 517.17 235.76 517.17 229 516.2 C227.58 515.99 227.58 515.99 226.12 515.78 C223.44 515.22 221.08 514.34 218.56 513.25 C221.59 507.54 224.72 501.98 228.25 496.56 C243.97 471.06 253.84 440.73 258.56 411.25 C258.72 410.27 258.88 409.29 259.05 408.27 C263.42 380.35 263.13 351.12 258.56 323.25 C258.33 321.79 258.33 321.79 258.09 320.3 C250.97 277.64 231.57 232.63 202.56 200.25 C201.95 199.54 201.34 198.83 200.71 198.11 C199.56 196.78 198.4 195.45 197.23 194.14 C196.11 192.87 195.01 191.59 193.93 190.3 C189.93 185.56 185.59 181.47 180.89 177.43 C178.51 175.2 176.59 172.8 174.56 170.25 C172.91 169.23 171.24 168.23 169.56 167.25 C168.84 166.52 168.11 165.79 167.37 165.03 C124.19 122.21 56.54 105.89 -2.31 106.07 C-59.65 106.42 -115.33 125.8 -160.44 161.25 C-161.29 161.91 -162.14 162.57 -163.02 163.25 C-169 167.99 -174.61 173.1 -180.19 178.31 C-180.9 178.97 -181.61 179.63 -182.34 180.31 C-187.01 184.73 -191.27 189.36 -195.44 194.25 C-196.31 195.23 -197.18 196.2 -198.07 197.21 C-226.52 229.8 -245.22 270.2 -254.44 312.25 C-254.69 313.37 -254.69 313.37 -254.94 314.51 C-255.95 319.07 -256.75 323.63 -257.44 328.25 C-257.54 328.92 -257.64 329.59 -257.75 330.29 C-261.84 358.51 -261.48 389.4 -255.44 417.25 C-255.22 418.28 -255.01 419.32 -254.79 420.38 C-247.87 453.27 -235.23 485.28 -216.44 513.25 C-219.52 514.99 -222.15 515.66 -225.64 516.12 C-226.69 516.26 -227.74 516.4 -228.81 516.54 C-229.95 516.69 -231.08 516.83 -232.25 516.98 C-233.44 517.14 -234.62 517.3 -235.84 517.47 C-238.39 517.81 -240.93 518.14 -243.48 518.48 C-263.55 521.12 -283.59 523.89 -303.52 527.43 C-321.48 530.59 -321.48 530.59 -326.44 530.25 C-329.33 528.22 -330.45 525.44 -331.86 522.26 C-332.3 521.26 -332.75 520.25 -333.21 519.22 C-333.91 517.59 -333.91 517.59 -334.62 515.94 C-335.36 514.25 -335.36 514.25 -336.1 512.53 C-353.69 471.56 -365.44 426.45 -365.64 381.65 C-365.65 380.59 -365.65 379.52 -365.66 378.43 C-365.89 334.27 -365.89 334.27 -362.44 314.25 C-362.14 312.46 -362.14 312.46 -361.84 310.62 C-356.97 281.92 -349.21 254.31 -338.44 227.25 C-337.88 225.84 -337.88 225.84 -337.31 224.39 C-331.74 210.42 -324.91 197.29 -317.44 184.25 C-317.03 183.54 -316.62 182.82 -316.2 182.09 C-305.93 164.2 -293.86 147.37 -280.41 131.75 C-278.72 129.78 -277.07 127.8 -275.45 125.77 C-270.02 118.99 -264.24 112.74 -258.06 106.62 C-257.19 105.75 -256.32 104.87 -255.43 103.97 C-250.16 98.71 -244.7 93.87 -238.89 89.22 C-236.94 87.65 -235.03 86.07 -233.15 84.42 C-177.95 36.29 -106.48 9.68 -34.44 1.25 C-33.55 1.15 -32.66 1.04 -31.75 0.93 C-21.21 -0.12 -10.59 0.01 0 0 Z " fill="#007E02" transform="translate(638.4375,16.75)"/>
<path d="M0 0 C0.67 0 1.35 0 2.04 0 C62.9 0.01 123.67 3.09 184.24 8.95 C186.62 9.18 189 9.4 191.37 9.63 C206.39 11.05 221.35 12.92 236.31 14.81 C237.33 14.94 237.33 14.94 238.37 15.07 C258.38 17.6 278.33 20.37 298.25 23.56 C299.31 23.73 300.37 23.9 301.46 24.07 C304.44 24.55 307.41 25.03 310.38 25.52 C311.24 25.66 312.1 25.8 312.99 25.95 C324.36 27.86 324.36 27.86 327.69 31.19 C327.44 35.94 324.9 39.71 322.5 43.69 C321.84 44.79 321.84 44.79 321.17 45.91 C300.51 80.09 274.25 115.75 242.2 140.18 C239.59 142.17 239.59 142.17 237.21 144.76 C233.43 148.49 230.54 150.93 225.19 151.67 C221.34 151.63 217.55 151.13 213.74 150.61 C210.21 150.12 206.67 149.71 203.12 149.3 C198.81 148.8 194.5 148.3 190.19 147.78 C166 144.85 141.74 142.93 117.41 141.43 C113.66 141.19 109.91 140.92 106.15 140.66 C93.15 139.74 80.17 139.01 67.14 138.64 C66.41 138.62 65.68 138.59 64.93 138.57 C45.54 138.03 26.15 138.04 6.75 138.06 C1.65 138.06 -3.46 138.06 -8.57 138.05 C-39.43 138.02 -70.28 138.11 -101.06 140.62 C-103.69 140.83 -106.31 141.03 -108.93 141.24 C-110.66 141.37 -112.38 141.5 -114.11 141.64 C-120.31 142.12 -126.51 142.53 -132.72 142.91 C-146.3 143.74 -159.83 144.91 -173.38 146.19 C-174.27 146.27 -175.17 146.36 -176.1 146.44 C-185.28 147.3 -194.4 148.27 -203.5 149.75 C-207.7 150.41 -211.89 150.86 -216.12 151.19 C-216.91 151.28 -217.69 151.37 -218.49 151.46 C-224.19 151.87 -227.07 150.54 -231.4 146.87 C-232.03 146.32 -232.66 145.76 -233.31 145.19 C-234.5 144.27 -235.7 143.36 -236.9 142.45 C-246.53 134.87 -255.28 126.52 -263.94 117.88 C-264.5 117.32 -265.06 116.76 -265.64 116.18 C-271.42 110.42 -277.01 104.7 -281.85 98.11 C-283.47 95.98 -285.24 94.03 -287.06 92.06 C-300.13 77.51 -311.03 60.35 -320.62 43.38 C-321.11 42.53 -321.6 41.69 -322.1 40.82 C-322.54 40.03 -322.97 39.24 -323.43 38.42 C-323.82 37.72 -324.21 37.02 -324.61 36.31 C-325.5 33.61 -325.06 31.88 -324.31 29.19 C-239.49 10.94 -150.96 4.23 -64.41 1.29 C-60.98 1.18 -57.54 1.05 -54.11 0.92 C-36.07 0.28 -18.05 -0.01 0 0 Z " fill="#FAFCFC" transform="translate(638.3125,523.8125)"/>
<path d="M0 0 C1.66 0.39 3.33 0.77 4.99 1.15 C7.44 1.7 9.88 2.27 12.32 2.85 C13.06 3.01 13.81 3.17 14.57 3.34 C17.92 4.17 20.08 5.01 22.62 7.38 C24.57 10.7 25.78 14 26.86 17.67 C27.1 18.47 27.35 19.27 27.6 20.09 C32.77 37.27 37.58 54.57 42.49 71.83 C43.66 75.97 44.84 80.11 46.03 84.25 C46.48 85.81 46.92 87.38 47.36 88.95 C47.98 91.12 48.6 93.29 49.22 95.46 C49.57 96.7 49.92 97.93 50.28 99.2 C51.18 102.33 51.18 102.33 53.28 105.2 C53.7 103.68 53.7 103.68 54.13 102.12 C59.52 83.3 70.09 67.12 87.34 57.08 C99.83 50.56 112.33 48 126.31 47.96 C128.41 47.95 130.5 47.92 132.6 47.89 C133.93 47.88 135.27 47.88 136.6 47.88 C137.81 47.87 139.02 47.86 140.26 47.85 C143.28 48.2 143.28 48.2 145.09 49.5 C147.37 52.77 148.73 56.55 150.28 60.2 C151.46 62.89 152.66 65.57 153.85 68.25 C154.53 69.76 155.2 71.27 155.87 72.78 C156.21 73.56 156.55 74.33 156.91 75.13 C157.62 76.73 158.33 78.33 159.04 79.93 C164.15 91.45 164.15 91.45 169.33 102.94 C169.75 103.87 170.18 104.81 170.62 105.77 C171.37 107.43 172.13 109.09 172.89 110.74 C175.28 115.99 175.28 115.99 175.28 118.2 C175.94 118.2 176.6 118.2 177.28 118.2 C177.61 94.77 177.94 71.34 178.28 47.2 C181.93 45.38 186.26 46.02 190.28 46.02 C191.21 46 192.14 45.99 193.09 45.98 C193.98 45.98 194.87 45.97 195.78 45.97 C197 45.97 197 45.97 198.25 45.96 C200.28 46.2 200.28 46.2 202.28 48.2 C202.56 51.1 202.56 51.1 202.6 54.86 C202.61 55.54 202.62 56.22 202.63 56.93 C202.66 59.19 202.68 61.45 202.69 63.71 C202.71 65.28 202.73 66.84 202.75 68.41 C202.8 72.54 202.84 76.66 202.88 80.79 C202.92 85 202.97 89.21 203.02 93.42 C203.12 101.68 203.2 109.94 203.28 118.2 C205.39 115.45 206.96 112.96 208.3 109.75 C208.66 108.89 209.02 108.03 209.39 107.15 C209.76 106.24 210.14 105.33 210.53 104.39 C213.61 97.09 216.78 89.88 220.18 82.73 C222.02 78.8 223.8 74.83 225.57 70.87 C225.86 70.21 226.16 69.55 226.46 68.88 C227.95 65.53 229.44 62.19 230.93 58.84 C231.48 57.6 232.03 56.36 232.58 55.12 C233.08 54 233.57 52.89 234.08 51.74 C235.28 49.2 235.28 49.2 236.28 48.2 C260.74 46.66 284.3 47.39 303.91 64.03 C319.21 78.09 330.35 97.54 331.46 118.65 C331.53 122.75 331.53 126.84 331.51 130.93 C331.51 132.5 331.51 134.07 331.51 135.64 C331.51 139.87 331.5 144.1 331.48 148.32 C331.47 152.75 331.47 157.18 331.47 161.61 C331.46 169.99 331.44 178.36 331.42 186.74 C331.4 196.28 331.39 205.82 331.38 215.36 C331.36 234.97 331.32 254.59 331.28 274.2 C327.24 275.36 323.59 275.08 319.44 274.71 C318.31 274.62 318.31 274.62 317.15 274.52 C315.55 274.39 313.95 274.25 312.35 274.11 C309.92 273.89 307.49 273.69 305.05 273.49 C303.5 273.36 301.94 273.23 300.38 273.09 C299.66 273.03 298.94 272.97 298.19 272.91 C293.79 272.51 290.59 271.64 286.28 270.2 C286.28 223.67 286.28 177.14 286.28 129.2 C285.62 129.2 284.96 129.2 284.28 129.2 C284.28 128.54 284.28 127.88 284.28 127.2 C280.65 127.53 277.02 127.86 273.28 128.2 C273.27 129.97 273.26 131.73 273.25 133.55 C273.15 150.13 273.05 166.72 272.94 183.3 C272.89 191.83 272.83 200.36 272.78 208.89 C272.74 216.32 272.69 223.75 272.64 231.18 C272.62 235.11 272.59 239.05 272.57 242.98 C272.55 246.69 272.53 250.39 272.5 254.09 C272.49 256.1 272.48 258.12 272.47 260.13 C272.45 261.91 272.45 261.91 272.44 263.73 C272.43 265.29 272.43 265.29 272.42 266.88 C272.28 269.2 272.28 269.2 271.28 270.2 C269.85 270.24 268.43 270.21 267 270.15 C266.09 270.11 265.18 270.08 264.23 270.04 C263.23 269.99 262.23 269.95 261.2 269.9 C260.17 269.86 259.13 269.81 258.06 269.77 C254.72 269.63 251.37 269.48 248.03 269.33 C245.85 269.24 243.67 269.14 241.49 269.05 C237.38 268.88 233.26 268.7 229.15 268.52 C227.57 268.45 227.57 268.45 225.97 268.38 C223.16 268.24 220.36 268.1 217.56 267.95 C205.97 267.35 194.42 267.04 182.82 266.97 C179.96 266.96 177.1 266.93 174.24 266.91 C166.12 266.84 158 266.78 149.88 266.73 C144.86 266.69 139.85 266.65 134.84 266.61 C132.95 266.59 131.05 266.58 129.15 266.57 C126.52 266.56 123.88 266.53 121.25 266.51 C120.47 266.51 119.69 266.5 118.88 266.5 C113.51 266.43 113.51 266.43 111.28 264.2 C111.03 261.83 111.03 261.83 111.04 258.8 C111.04 257.08 111.04 257.08 111.03 255.32 C111.04 253.43 111.04 253.43 111.05 251.49 C111.05 250.15 111.05 248.81 111.05 247.47 C111.05 243.83 111.06 240.18 111.08 236.54 C111.09 232.73 111.09 228.93 111.09 225.12 C111.1 217.91 111.12 210.7 111.14 203.49 C111.16 195.28 111.17 187.07 111.18 178.86 C111.2 161.98 111.24 145.09 111.28 128.2 C106.66 127.87 102.04 127.54 97.28 127.2 C97.29 129.11 97.29 129.11 97.3 131.05 C97.36 143.02 97.41 155 97.44 166.97 C97.45 173.13 97.47 179.29 97.51 185.44 C97.54 191.39 97.56 197.33 97.56 203.28 C97.57 205.54 97.58 207.81 97.6 210.07 C97.62 213.25 97.62 216.43 97.62 219.61 C97.63 220.54 97.64 221.47 97.65 222.42 C97.63 228.06 97.54 236.95 93.28 241.2 C92.96 246.45 93.8 250.96 95.28 255.95 C97.28 262.86 97.28 262.86 97.28 266.2 C95.01 266.31 92.74 266.39 90.47 266.45 C89.2 266.5 87.94 266.55 86.64 266.59 C83.28 266.2 83.28 266.2 81.75 264.54 C80.08 261.89 78.76 259.21 77.46 256.36 C76.93 255.2 76.4 254.05 75.85 252.86 C75.29 251.62 74.72 250.38 74.16 249.14 C73.27 247.22 72.39 245.29 71.5 243.37 C70.91 242.09 70.32 240.81 69.74 239.53 C67.46 234.57 65.13 229.63 62.78 224.7 C59.07 216.91 55.42 209.09 51.78 201.27 C51.5 200.66 51.22 200.06 50.93 199.44 C47.38 191.8 43.89 184.14 40.47 176.45 C37.93 170.76 35.3 165.14 32.47 159.58 C25.73 146.34 19.68 132.74 13.57 119.2 C9.58 110.36 5.54 101.57 1.12 92.92 C-1.63 87.49 -4.09 81.95 -6.46 76.34 C-7.71 73.42 -8.95 70.86 -10.72 68.2 C-11.1 68.77 -11.48 69.34 -11.86 69.93 C-17.91 78.4 -25.47 83.93 -35.72 86.2 C-38.62 86.44 -41.5 86.44 -44.41 86.39 C-45.15 86.39 -45.9 86.39 -46.67 86.39 C-50.18 86.36 -53.34 86.14 -56.72 85.2 C-44.29 112 -31.83 138.78 -19.22 165.5 C-17.68 168.77 -16.14 172.05 -14.6 175.32 C-14.01 176.59 -13.41 177.86 -12.81 179.12 C-11.96 180.94 -11.1 182.76 -10.25 184.57 C-9.76 185.61 -9.27 186.65 -8.77 187.72 C-7.72 190.2 -7.72 190.2 -7.72 192.2 C-6.48 192.04 -5.24 191.87 -3.97 191.7 C14.21 189.78 14.21 189.78 21.28 195.2 C27.29 200.67 31.61 207.01 32.66 215.16 C32.91 221.65 32.34 226.98 28.28 232.2 C24.89 235.65 21.29 238.53 17.28 241.2 C17.88 244.89 18.92 247.87 20.57 251.21 C21.01 252.14 21.46 253.06 21.92 254.01 C22.39 254.96 22.86 255.91 23.34 256.89 C24.27 258.79 25.2 260.69 26.13 262.59 C26.54 263.43 26.95 264.26 27.38 265.13 C28.28 267.2 28.28 267.2 28.28 269.2 C23.8 270.32 19.87 270.64 15.28 270.2 C11.49 266.37 9.34 261.69 7.03 256.89 C6.67 256.15 6.3 255.41 5.93 254.65 C5.04 252.83 4.16 251.02 3.28 249.2 C2.39 249.53 2.39 249.53 1.48 249.86 C-7.66 252.93 -15.1 253.77 -24.03 249.64 C-30.97 245.79 -35 241.91 -37.66 234.39 C-39.6 226.76 -38.73 219.81 -34.88 212.95 C-31.35 207.64 -26.31 204.1 -20.72 201.2 C-20.06 201.2 -19.4 201.2 -18.72 201.2 C-22.22 193.6 -25.73 186 -29.24 178.4 C-30.12 176.51 -30.99 174.62 -31.86 172.73 C-34.76 166.44 -37.71 160.19 -40.84 154.02 C-49.18 137.49 -56.69 120.52 -64.33 103.66 C-68.54 94.38 -72.8 85.13 -77.27 75.97 C-77.71 75.05 -78.16 74.12 -78.62 73.17 C-79.49 71.37 -80.37 69.58 -81.26 67.78 C-87.34 55.21 -90.32 42.76 -86.16 28.95 C-80.51 14.21 -70.83 4.07 -56.72 -2.8 C-37.53 -10.25 -19.14 -4.53 0 0 Z " fill="#007E02" transform="translate(496.719970703125,252.796875)"/>
<path d="M0 0 C0.8 0.08 1.59 0.16 2.42 0.24 C4.65 0.47 6.87 0.71 9.1 0.95 C10.97 1.14 10.97 1.14 12.87 1.34 C16.53 1.9 19.84 2.78 23.38 3.88 C23.38 4.87 23.38 5.86 23.38 6.88 C21.55 8.43 21.55 8.43 18.98 10.1 C18.03 10.71 17.09 11.33 16.11 11.96 C15.08 12.62 14.06 13.27 13 13.94 C11.95 14.61 10.91 15.28 9.83 15.97 C0.88 21.66 -8.22 26.97 -17.62 31.88 C-18.3 32.23 -18.97 32.58 -19.66 32.94 C-24.27 35.34 -28.93 37.64 -33.62 39.88 C-34.3 40.2 -34.97 40.52 -35.67 40.85 C-63.34 53.92 -92.75 62.9 -122.82 68.36 C-125.32 68.82 -127.82 69.3 -130.32 69.78 C-165.74 76.4 -204.07 76.12 -239.62 70.88 C-240.63 70.74 -241.63 70.6 -242.67 70.45 C-277.77 65.53 -311.55 54.85 -343.62 39.88 C-344.34 39.54 -345.05 39.21 -345.79 38.87 C-364.41 30.11 -382.22 19.61 -399.11 7.88 C-400.66 6.8 -400.66 6.8 -402.62 5.88 C-402.62 5.22 -402.62 4.55 -402.62 3.88 C-401.31 3.56 -400 3.25 -398.69 2.94 C-397.96 2.76 -397.23 2.59 -396.47 2.41 C-389.02 1.01 -381.36 0.53 -373.81 -0.21 C-372.78 -0.31 -371.75 -0.41 -370.69 -0.52 C-329.7 -4.54 -288.79 -7.58 -247.62 -9.12 C-246.83 -9.16 -246.03 -9.19 -245.21 -9.22 C-163.38 -12.29 -81.42 -8.34 0 0 Z " fill="#007E02" transform="translate(828.625,676.125)"/>
<path d="M0 0 C0.67 0 1.35 0 2.04 0 C62.9 0.01 123.67 3.09 184.24 8.95 C186.62 9.18 189 9.4 191.37 9.63 C206.39 11.05 221.35 12.92 236.31 14.81 C237.33 14.94 237.33 14.94 238.37 15.07 C258.38 17.6 278.33 20.37 298.25 23.56 C299.31 23.73 300.37 23.9 301.46 24.07 C304.44 24.55 307.41 25.03 310.38 25.52 C311.24 25.66 312.1 25.8 312.99 25.95 C324.36 27.86 324.36 27.86 327.69 31.19 C327.44 35.94 324.9 39.71 322.5 43.69 C321.84 44.79 321.84 44.79 321.17 45.91 C300.51 80.09 274.25 115.75 242.2 140.18 C239.59 142.17 239.59 142.17 237.21 144.76 C233.43 148.49 230.54 150.93 225.19 151.67 C221.34 151.63 217.55 151.13 213.74 150.61 C210.21 150.12 206.67 149.71 203.12 149.3 C198.81 148.8 194.5 148.3 190.19 147.78 C166 144.85 141.74 142.93 117.41 141.43 C113.66 141.19 109.91 140.92 106.15 140.66 C93.15 139.74 80.17 139.01 67.14 138.64 C66.41 138.62 65.68 138.59 64.93 138.57 C45.54 138.03 26.15 138.04 6.75 138.06 C1.65 138.06 -3.46 138.06 -8.57 138.05 C-39.43 138.02 -70.28 138.11 -101.06 140.62 C-103.69 140.83 -106.31 141.03 -108.93 141.24 C-110.66 141.37 -112.38 141.5 -114.11 141.64 C-120.31 142.12 -126.51 142.53 -132.72 142.91 C-146.3 143.74 -159.83 144.91 -173.38 146.19 C-174.27 146.27 -175.17 146.36 -176.1 146.44 C-185.28 147.3 -194.4 148.27 -203.5 149.75 C-207.7 150.41 -211.89 150.86 -216.12 151.19 C-216.91 151.28 -217.69 151.37 -218.49 151.46 C-224.19 151.87 -227.07 150.54 -231.4 146.87 C-232.03 146.32 -232.66 145.76 -233.31 145.19 C-234.5 144.27 -235.7 143.36 -236.9 142.45 C-246.53 134.87 -255.28 126.52 -263.94 117.88 C-264.5 117.32 -265.06 116.76 -265.64 116.18 C-271.42 110.42 -277.01 104.7 -281.85 98.11 C-283.47 95.98 -285.24 94.03 -287.06 92.06 C-300.13 77.51 -311.03 60.35 -320.62 43.38 C-321.11 42.53 -321.6 41.69 -322.1 40.82 C-322.54 40.03 -322.97 39.24 -323.43 38.42 C-323.82 37.72 -324.21 37.02 -324.61 36.31 C-325.5 33.61 -325.06 31.88 -324.31 29.19 C-239.49 10.94 -150.96 4.23 -64.41 1.29 C-60.98 1.18 -57.54 1.05 -54.11 0.92 C-36.07 0.28 -18.05 -0.01 0 0 Z M-34.22 6.47 C-36.45 6.5 -38.67 6.53 -40.9 6.55 C-61.74 6.8 -82.5 7.73 -103.3 9.06 C-106.44 9.26 -109.58 9.45 -112.72 9.64 C-156.74 12.38 -200.59 16.34 -244.31 22.19 C-245.52 22.35 -246.72 22.5 -247.96 22.67 C-270.83 25.68 -293.56 29.38 -316.31 33.19 C-317.48 36.65 -317.38 37.05 -315.68 40.63 C-314.86 42.01 -314.03 43.38 -313.19 44.75 C-312.74 45.49 -312.29 46.24 -311.82 47.01 C-300.54 65.39 -287.95 83.37 -273.18 99.14 C-271.11 101.41 -269.22 103.79 -267.31 106.19 C-263.63 110.08 -259.63 113.6 -255.59 117.12 C-252.28 120.12 -249.17 123.28 -246.09 126.51 C-239.54 133.3 -231.87 140.91 -223.31 145.19 C-214.28 144.99 -205.27 143.76 -196.31 142.69 C-168.72 139.43 -141.02 137.2 -113.31 135.19 C-112.13 135.1 -110.94 135.01 -109.72 134.92 C-35.08 129.54 41.06 129.66 115.69 135.19 C117.02 135.29 118.35 135.38 119.68 135.48 C171.34 139.28 171.34 139.28 188.66 141.76 C194.07 142.52 199.5 143.01 204.95 143.48 C208.92 143.82 212.85 144.18 216.79 144.82 C223.21 145.74 223.21 145.74 229.27 143.89 C231.93 141.81 234.28 139.55 236.69 137.19 C238.26 135.89 239.83 134.58 241.4 133.29 C248.17 127.71 254.42 121.63 260.62 115.44 C261.81 114.25 261.81 114.25 263.03 113.04 C267.78 108.24 272.32 103.33 276.69 98.19 C277.39 97.37 278.09 96.55 278.81 95.7 C290.28 81.85 300.96 67.4 310.47 52.14 C311.68 50.2 312.91 48.27 314.14 46.35 C314.89 45.17 315.63 43.99 316.38 42.81 C317.02 41.79 317.66 40.78 318.32 39.73 C319.92 37.23 319.92 37.23 319.69 34.19 C315.05 32.01 310.39 31.35 305.38 30.6 C304.46 30.46 303.55 30.32 302.61 30.17 C299.64 29.71 296.66 29.26 293.69 28.81 C291.61 28.5 289.54 28.18 287.46 27.86 C282.41 27.09 277.36 26.33 272.3 25.58 C270.06 25.24 267.82 24.91 265.59 24.57 C248.34 21.99 231.02 20.03 213.69 18.06 C212.56 17.93 211.43 17.81 210.26 17.67 C198.9 16.39 187.53 15.14 176.15 14.04 C174.91 13.92 174.91 13.92 173.65 13.8 C166.89 13.17 160.13 12.76 153.35 12.43 C149.69 12.19 149.69 12.19 146.4 11.7 C142.79 11.2 139.25 10.92 135.61 10.72 C134.95 10.69 134.28 10.65 133.59 10.61 C131.4 10.49 129.2 10.37 127 10.25 C123.78 10.08 120.57 9.9 117.35 9.73 C116.53 9.68 115.71 9.64 114.87 9.59 C109.85 9.32 104.85 9 99.84 8.65 C55.28 5.63 10.41 5.89 -34.22 6.47 Z " fill="#01760C" transform="translate(638.3125,523.8125)"/>
<path d="M0 0 C1.3 -0.01 2.6 -0.02 3.94 -0.02 C7.66 0.4 8.83 0.8 11.44 3.38 C11.92 5.63 11.92 5.63 11.89 8.31 C11.89 9.31 11.89 10.31 11.89 11.34 C11.87 12.42 11.85 13.49 11.83 14.61 C11.82 15.71 11.82 16.82 11.81 17.96 C11.79 21.49 11.74 25.03 11.69 28.56 C11.67 30.96 11.65 33.35 11.63 35.75 C11.59 41.62 11.52 47.5 11.44 53.38 C13.76 53.76 16.1 54.09 18.44 54.38 C20.02 52.79 19.6 51.15 19.64 48.95 C19.66 48.01 19.68 47.07 19.7 46.1 C19.72 45.07 19.74 44.05 19.75 43 C19.79 41.43 19.79 41.43 19.82 39.84 C19.88 36.5 19.94 33.15 20 29.81 C20.04 27.55 20.09 25.29 20.13 23.03 C20.24 17.48 20.34 11.93 20.44 6.38 C23.44 5.38 23.44 5.38 25.6 6.31 C46.79 19.26 58.48 39.52 64.22 63.19 C64.63 64.92 65.03 66.65 65.44 68.38 C70.39 68.38 75.34 68.38 80.44 68.38 C81.76 71.02 81.53 73.05 81.5 76 C81.49 77 81.48 78.01 81.47 79.04 C81.46 80.2 81.46 80.2 81.44 81.38 C60.07 81.4 38.71 81.42 17.34 81.43 C7.42 81.43 -2.5 81.44 -12.42 81.45 C-21.06 81.46 -29.7 81.47 -38.35 81.47 C-42.93 81.47 -47.51 81.47 -52.08 81.48 C-56.39 81.49 -60.69 81.49 -65 81.49 C-66.58 81.49 -68.17 81.49 -69.75 81.49 C-71.91 81.5 -74.06 81.5 -76.22 81.5 C-77.42 81.5 -78.63 81.5 -79.88 81.5 C-82.56 81.38 -82.56 81.38 -83.56 80.38 C-83.69 78.73 -83.74 77.08 -83.75 75.44 C-83.76 74.54 -83.78 73.65 -83.79 72.72 C-83.56 70.38 -83.56 70.38 -81.56 68.38 C-78.99 68.07 -76.51 67.86 -73.94 67.75 C-73.23 67.71 -72.52 67.67 -71.8 67.63 C-70.05 67.54 -68.31 67.46 -66.56 67.38 C-66.25 65.81 -66.25 65.81 -65.93 64.22 C-61.38 42.58 -52 23.98 -33.81 10.44 C-29.94 7.98 -27.17 6.38 -22.56 6.38 C-22.53 8.34 -22.53 8.34 -22.5 10.35 C-22.43 15.22 -22.34 20.09 -22.25 24.95 C-22.21 27.06 -22.17 29.17 -22.14 31.27 C-22.09 34.3 -22.04 37.33 -21.98 40.36 C-21.97 41.3 -21.95 42.24 -21.94 43.21 C-21.92 44.09 -21.9 44.97 -21.88 45.88 C-21.87 46.65 -21.85 47.43 -21.84 48.22 C-21.53 50.63 -20.76 52.28 -19.56 54.38 C-17.9 54.42 -16.23 54.42 -14.56 54.38 C-12.94 52.75 -13.44 50.96 -13.44 48.72 C-13.43 47.73 -13.43 46.74 -13.42 45.72 C-13.42 44.64 -13.42 43.56 -13.42 42.45 C-13.4 40.18 -13.38 37.92 -13.36 35.66 C-13.33 32.08 -13.31 28.49 -13.31 24.91 C-13.31 21.46 -13.27 18.02 -13.23 14.57 C-13.24 13.5 -13.25 12.42 -13.26 11.31 C-13.21 8.58 -13.13 6.05 -12.56 3.38 C-8.77 -0.19 -5.07 -0.03 0 0 Z " fill="#007E02" transform="translate(686.5625,138.625)"/>
<path d="M0 0 C13 -0.05 26.01 -0.08 39.01 -0.1 C45.05 -0.11 51.09 -0.13 57.12 -0.15 C62.95 -0.17 68.77 -0.18 74.59 -0.19 C76.82 -0.19 79.04 -0.2 81.27 -0.21 C84.38 -0.23 87.49 -0.23 90.59 -0.23 C91.99 -0.24 91.99 -0.24 93.41 -0.25 C94.25 -0.25 95.09 -0.24 95.96 -0.24 C96.7 -0.24 97.43 -0.24 98.19 -0.25 C100 0 100 0 102 2 C104.29 16.6 96.74 29.71 88.75 41.25 C78.82 51.18 66.04 58.05 51.75 58.19 C36.39 57.96 22.78 50.7 12 40 C3.08 30.27 -1.27 17.15 -1.17 4.1 C-1 2 -1 2 0 0 Z " fill="#007E02" transform="translate(635,230)"/>
<path d="M0 0 C0.91 0.21 1.82 0.42 2.76 0.63 C4.68 1.07 6.59 1.52 8.5 1.97 C11.42 2.65 14.35 3.3 17.29 3.94 C19.15 4.38 21.01 4.81 22.88 5.25 C23.75 5.44 24.62 5.63 25.53 5.82 C31.48 7.28 31.48 7.28 33.9 10.48 C35.5 15.46 37.02 20.44 38.43 25.47 C38.76 26.64 39.09 27.8 39.43 29 C40.34 32.23 41.25 35.45 42.16 38.68 C43.73 44.28 45.32 49.88 46.9 55.47 C47.33 56.98 47.76 58.48 48.18 59.98 C51.65 72.22 55.19 84.44 58.76 96.65 C59.6 99.51 60.43 102.37 61.27 105.24 C61.68 106.65 61.68 106.65 62.1 108.09 C62.65 109.98 63.21 111.87 63.76 113.76 C65.13 118.46 66.5 123.15 67.88 127.84 C69.19 132.29 70.5 136.74 71.79 141.19 C72.27 142.85 72.76 144.5 73.25 146.15 C73.92 148.41 74.58 150.68 75.24 152.95 C75.53 153.94 75.53 153.94 75.84 154.96 C76.79 158.31 77.34 160.72 76.04 164.02 C76.04 163.36 76.04 162.7 76.04 162.02 C75.38 162.02 74.72 162.02 74.04 162.02 C66.59 146.7 59.21 131.36 52.07 115.89 C49.14 109.54 46.19 103.19 43.2 96.87 C42.87 96.17 42.54 95.47 42.2 94.76 C40.85 91.9 39.5 89.05 38.15 86.19 C34.36 78.17 30.62 70.14 26.97 62.05 C26.64 61.32 26.3 60.58 25.96 59.83 C24.39 56.34 22.82 52.84 21.26 49.35 C18.32 42.77 15.23 36.31 11.85 29.94 C11.53 29.34 11.21 28.73 10.88 28.1 C6.09 19.22 2.04 14.31 -7.4 10.71 C-16.72 8.91 -24.56 10.31 -32.85 15.12 C-37.86 18.85 -40.05 24.28 -41.96 30.02 C-42.55 36.38 -42.34 42.46 -38.96 48.02 C-33.99 53.82 -27.9 56.61 -20.4 57.4 C-13.69 56.67 -9.31 54.12 -4.96 49.02 C-3.39 46.43 -2.59 43.98 -1.96 41.02 C-1.3 41.02 -0.64 41.02 0.04 41.02 C0.59 46.18 0.47 49.03 -2.65 53.27 C-7.46 59.04 -12.03 62.67 -19.67 63.36 C-27.21 63.53 -33.64 63.56 -39.96 59.02 C-40.65 58.63 -41.33 58.24 -42.04 57.84 C-48.5 53.81 -50.8 48.15 -52.96 41.02 C-55.04 31.56 -52.67 22.8 -47.79 14.57 C-41.21 5.43 -32.6 0.48 -21.75 -1.68 C-14.19 -2.49 -7.38 -1.71 0 0 Z " fill="#FAFCFC" transform="translate(475.9609375,261.9765625)"/>
<path d="M0 0 C5.11 3.78 8.13 8.73 9.5 14.95 C9.85 20.13 9.17 23.48 5.88 27.56 C1.08 32.25 -3.8 35.21 -10.56 35.75 C-16.01 35.49 -20.19 32.77 -24.12 29.12 C-28.09 23.77 -27.9 18.55 -27.12 12.12 C-24.43 6.42 -19.99 2.43 -14.25 -0.19 C-9.18 -1.3 -5.01 -1.4 0 0 Z " fill="#FAFCFC" transform="translate(904.125,184.875)"/>
<path d="M0 0 C1.81 2.31 2.05 3.51 1.76 6.43 C0.86 9.47 -0.13 10.45 -2.56 12.44 C-3.28 13.03 -3.99 13.61 -4.72 14.22 C-8.11 16.87 -11.52 19.47 -15 22 C-12.73 24.27 -12.08 24.33 -9.01 24.71 C-7.83 24.88 -7.83 24.88 -6.62 25.05 C-4.97 25.26 -3.31 25.48 -1.65 25.68 C2.1 26.22 4.47 26.62 7.59 28.87 C9 31 9 31 8.75 34.75 C8.5 35.82 8.25 36.89 8 38 C2 40.36 -4.01 42.25 -10.25 43.88 C-11.13 44.13 -12.02 44.38 -12.93 44.63 C-19.4 46.31 -19.4 46.31 -22.61 44.63 C-23.07 44.09 -23.53 43.56 -24 43 C-23.67 41.68 -23.34 40.36 -23 39 C-14.09 36.52 -14.09 36.52 -5 34 C-9.67 31.66 -13.67 31.27 -18.81 30.66 C-22.11 29.98 -24.24 28.9 -27 27 C-26.84 22.73 -26.32 21.3 -23.16 18.3 C-22 17.43 -20.82 16.58 -19.62 15.75 C-19.03 15.32 -18.44 14.88 -17.84 14.44 C-15.26 12.56 -12.65 10.77 -10 9 C-11.65 9.29 -13.29 9.58 -14.94 9.88 C-15.94 10.05 -16.94 10.23 -17.96 10.41 C-21.4 11.08 -24.76 11.95 -28.12 12.93 C-30 13 -30 13 -31.81 11.79 C-33 10 -33 10 -32.57 7.89 C-32.38 7.26 -32.2 6.64 -32 6 C-28.44 5.02 -24.88 4.04 -21.31 3.06 C-20.31 2.78 -19.3 2.51 -18.26 2.22 C-17.28 1.95 -16.31 1.69 -15.3 1.41 C-13.96 1.04 -13.96 1.04 -12.59 0.66 C-4.22 -1.48 -4.22 -1.48 0 0 Z " fill="#FAFCFC" transform="translate(954,282)"/>
<path d="M0 0 C6.32 3.18 11.18 9.05 14.01 15.47 C14.84 18.16 14.71 19.72 13.57 22.29 C11.88 24.6 11.88 24.6 9.57 26.29 C6.44 26.54 6.44 26.54 3.57 26.29 C2.91 26.29 2.25 26.29 1.57 26.29 C1.9 26.62 2.23 26.95 2.57 27.29 C2.91 30.32 2.79 31.9 1.25 34.56 C-0.56 36.67 -2.25 38.57 -4.43 40.29 C-7.87 40.29 -7.87 40.29 -10.43 39.29 C-10.93 37.8 -10.93 37.8 -11.43 36.29 C-10.4 34.46 -10.4 34.46 -8.93 32.48 C-6.98 29.52 -6.44 28.57 -6.37 24.91 C-7.2 22.17 -7.2 22.17 -9.5 20.91 C-10.14 20.71 -10.77 20.5 -11.43 20.29 C-11.81 20.72 -12.18 21.16 -12.57 21.6 C-16.73 26.12 -16.73 26.12 -20.12 26.91 C-23.09 26.11 -23.89 24.89 -25.43 22.29 C-23.46 18.77 -21.37 15.97 -18.53 13.12 C-17.78 12.37 -17.04 11.62 -16.27 10.86 C-15.5 10.09 -14.73 9.33 -13.93 8.54 C-13.16 7.76 -12.39 6.98 -11.59 6.18 C-10.85 5.43 -10.11 4.69 -9.34 3.93 C-8.66 3.25 -7.99 2.58 -7.29 1.88 C-4.74 -0.31 -3.27 -0.96 0 0 Z " fill="#FAFCFC" transform="translate(866.43359375,142.7109375)"/>
<path d="M0 0 C2.62 -0.19 2.62 -0.19 5 0 C8.21 5.17 10.12 10.01 11.69 15.88 C12.67 20.82 12.67 20.82 15 25 C15.49 23.66 15.49 23.66 15.99 22.3 C16.43 21.13 16.86 19.96 17.31 18.75 C17.74 17.59 18.17 16.43 18.61 15.23 C19.84 12.36 20.79 10.2 23 8 C24.32 8 25.64 8 27 8 C28.61 11.05 29.11 12.51 28.34 15.92 C27.92 16.97 27.51 18.02 27.08 19.11 C26.41 20.83 26.41 20.83 25.72 22.58 C25.23 23.77 24.75 24.96 24.25 26.19 C23.78 27.39 23.31 28.59 22.83 29.83 C19.31 38.69 19.31 38.69 17 41 C13.99 40.61 12.6 39.74 10 38 C9.12 35.89 9.12 35.89 8.43 33.32 C8.17 32.39 7.92 31.46 7.65 30.51 C7.4 29.53 7.14 28.56 6.88 27.56 C6.35 25.65 5.83 23.73 5.3 21.82 C5.08 20.97 4.85 20.11 4.62 19.24 C4.13 17.48 3.58 15.73 3 14 C2.39 15.7 2.39 15.7 1.76 17.43 C1.21 18.91 0.67 20.39 0.12 21.88 C-0.14 22.62 -0.41 23.37 -0.69 24.14 C-2.77 29.77 -2.77 29.77 -5 32 C-7.62 31.62 -7.62 31.62 -10 31 C-11.38 27.28 -10.59 25.1 -9.2 21.46 C-8.8 20.41 -8.4 19.35 -7.99 18.26 C-7.56 17.17 -7.13 16.07 -6.69 14.94 C-6.06 13.29 -6.06 13.29 -5.42 11.6 C-2.31 3.46 -2.31 3.46 0 0 Z " fill="#FAFCFC" transform="translate(741,70)"/>
<path d="M0 0 C2.39 3.59 2.52 4.76 2 9 C0.71 11.87 -0.9 14.51 -2.56 17.19 C-3.43 18.59 -4.28 20 -5.13 21.42 C-5.51 22.03 -5.89 22.65 -6.29 23.29 C-7.3 25.19 -7.3 25.19 -6 28 C-5.11 27.57 -4.22 27.13 -3.3 26.69 C-2.13 26.13 -0.96 25.57 0.25 25 C1.41 24.44 2.57 23.89 3.77 23.31 C7 22 7 22 11 22 C11.5 24.97 11.5 24.97 12 28 C-7.76 40.18 -7.76 40.18 -18 40 C-19 39 -19 39 -19.04 37.23 C-18.51 31.03 -16.66 26.71 -13.44 21.44 C-13.01 20.71 -12.59 19.99 -12.15 19.25 C-11.11 17.49 -10.06 15.74 -9 14 C-13.02 14 -16.57 15.77 -20.06 17.62 C-23.04 19.02 -24.77 19.29 -28 19 C-28.66 17.68 -29.32 16.36 -30 15 C-26.52 10.89 -22.5 9.09 -17.69 6.94 C-16.95 6.6 -16.22 6.26 -15.46 5.91 C-13.31 4.93 -11.16 3.96 -9 3 C-8.33 2.7 -7.66 2.4 -6.97 2.09 C-2.24 0 -2.24 0 0 0 Z " fill="#FAFCFC" transform="translate(931,228)"/>
<path d="M0 0 C3.03 1.39 5.85 3.07 8.69 4.81 C9.43 5.25 10.18 5.69 10.95 6.14 C14.71 8.4 18.2 10.55 21 14 C21.25 16.75 21.25 16.75 21 19 C19.25 20.11 19.25 20.11 17 21 C15 20.36 15 20.36 13 19.19 C10.33 17.66 8.02 16.63 5 16 C3.87 19.31 2.79 22.59 2 26 C2.93 26.6 3.86 27.2 4.81 27.81 C9.8 31.24 9.8 31.24 11 33 C10.69 35.69 10.69 35.69 10 38 C6.77 39.04 5.33 39.14 2.14 37.83 C0.61 36.94 0.61 36.94 -0.96 36.04 C-2.07 35.4 -3.18 34.77 -4.33 34.11 C-5.49 33.43 -6.65 32.75 -7.81 32.06 C-8.99 31.38 -10.18 30.7 -11.36 30.03 C-14.25 28.36 -17.13 26.69 -20 25 C-20.04 23 -20.04 21 -20 19 C-19 18 -19 18 -15.88 17.69 C-11.12 18.07 -8.95 19.42 -5 22 C-4.71 21.09 -4.42 20.19 -4.12 19.25 C-3 16 -3 16 -1 12 C-5.45 9.03 -5.45 9.03 -10 6 C-9.62 3.06 -9.62 3.06 -9 0 C-5.93 -1.54 -3.19 -0.88 0 0 Z " fill="#FAFCFC" transform="translate(366,210)"/>
<path d="M0 0 C2.81 1.48 5.5 3.12 8.19 4.81 C8.87 5.23 9.56 5.64 10.26 6.06 C14.75 8.87 17.82 11.77 21 16 C20.34 17.32 19.68 18.64 19 20 C13.1 19.04 13.1 19.04 10.62 18.06 C6.74 17.97 4.59 19.59 1.61 21.96 C-0.93 25.18 -0.61 28.07 -0.28 32.02 C-0.19 32.68 -0.1 33.33 0 34 C-2.31 34.62 -2.31 34.62 -5 35 C-9.9 31.73 -10.25 26.31 -11.75 20.81 C-12.08 19.69 -12.41 18.56 -12.75 17.4 C-14.37 11.57 -15.66 6.91 -14 1 C-9.95 -4.52 -5.39 -2.47 0 0 Z " fill="#FAFCFC" transform="translate(454,119)"/>
<path d="M0 0 C7 -0.12 14 -0.02 21 0.25 C21.73 0.26 22.46 0.28 23.21 0.29 C26.6 0.45 28.73 0.82 31.56 2.73 C33 5 33 5 33.17 7.46 C31.49 11.12 28.67 12.6 25.31 14.56 C24.08 15.31 22.85 16.06 21.61 16.82 C21.01 17.18 20.41 17.54 19.79 17.91 C17.14 19.53 14.57 21.26 12 23 C15.17 24.58 18.65 24.66 22.12 25.06 C23.26 25.2 23.26 25.2 24.41 25.34 C26.27 25.56 28.14 25.78 30 26 C30.38 27.99 30.71 29.99 31 32 C30 33 30 33 28.21 33.04 C27.44 33 26.67 32.96 25.88 32.91 C25.03 32.87 24.18 32.83 23.31 32.78 C22.4 32.73 21.5 32.68 20.56 32.62 C19.65 32.57 18.74 32.52 17.8 32.47 C0.75 31.5 0.75 31.5 -3 29 C-3.46 26.59 -3.46 26.59 -3 24 C-1.2 22.23 -1.2 22.23 1.31 20.62 C2.21 20.04 3.11 19.45 4.04 18.84 C5.02 18.24 5.99 17.63 7 17 C9.04 15.71 11.08 14.42 13.12 13.12 C14.06 12.55 14.99 11.98 15.95 11.38 C16.62 10.93 17.3 10.47 18 10 C18 9.67 18 9.34 18 9 C16.88 8.88 15.76 8.76 14.61 8.63 C13.13 8.46 11.66 8.29 10.19 8.12 C9.45 8.05 8.71 7.97 7.95 7.89 C4.28 7.46 2.12 7.08 -1 5 C-0.67 3.35 -0.34 1.7 0 0 Z " fill="#FAFCFC" transform="translate(937,392)"/>
<path d="M0 0 C2 3 2 3 1.75 5.06 C1 7 1 7 -1 9 C-4.3 9.88 -7.63 10.4 -11 11 C-10.01 14.3 -9.02 17.6 -8 21 C-6.63 20.95 -6.63 20.95 -5.23 20.89 C-4.04 20.87 -2.85 20.84 -1.62 20.81 C-0.44 20.78 0.74 20.74 1.96 20.71 C3.47 20.85 3.47 20.85 5 21 C7 24 7 24 6.84 26.09 C6 28 6 28 2.48 29.61 C-1.85 31.04 -6.24 32.17 -10.69 33.19 C-11.42 33.36 -12.15 33.54 -12.91 33.72 C-20.17 35.42 -20.17 35.42 -24 35 C-24.99 34.34 -25.98 33.68 -27 33 C-26.94 30.69 -26.94 30.69 -26 28 C-22.72 26.3 -19.5 25.17 -16 24 C-16.33 20.7 -16.66 17.4 -17 14 C-17.83 14.02 -18.66 14.05 -19.52 14.07 C-21.15 14.1 -21.15 14.1 -22.81 14.12 C-23.89 14.15 -24.97 14.17 -26.08 14.2 C-29 14 -29 14 -32 12 C-32 9.69 -32 9.69 -31 7 C-25.6 4.65 -20.1 3.14 -14.38 1.81 C-13.65 1.64 -12.93 1.46 -12.18 1.28 C-8.08 0.31 -4.23 -0.49 0 0 Z " fill="#FAFCFC" transform="translate(347,439)"/>
<path d="M0 0 C0.5 2.97 0.5 2.97 1 6 C-3.62 9 -3.62 9 -7 9 C-7.97 16.82 -7.97 16.82 -5.66 23.98 C-3.86 25.5 -3.86 25.5 -1 27 C-1.5 29.48 -1.5 29.48 -2 32 C-6.16 33.39 -8.65 31.73 -12.44 30 C-13.15 29.68 -13.85 29.37 -14.58 29.04 C-29.97 22.03 -29.97 22.03 -34 18 C-34.47 11.61 -34.47 11.61 -32.73 9.37 C-30.84 7.88 -29.3 7.2 -27.02 6.46 C-26.24 6.21 -25.47 5.96 -24.68 5.7 C-23.88 5.45 -23.08 5.2 -22.25 4.94 C-21.46 4.68 -20.68 4.43 -19.87 4.16 C-17.58 3.42 -15.29 2.71 -13 2 C-12 1.69 -12 1.69 -10.98 1.38 C-7.19 0.24 -3.96 -0.19 0 0 Z " fill="#FAFCFC" transform="translate(344,344)"/>
<path d="M0 0 C0.66 0 1.32 0 2 0 C4.17 4.86 6.31 9.72 8.43 14.6 C13.03 25.18 17.8 35.69 23 46 C16.77 45.04 16.77 45.04 14.64 42.16 C12 36.89 12 36.89 12 34 C5.4 34.33 -1.2 34.66 -8 35 C-8.66 37.97 -9.32 40.94 -10 44 C-10.66 44.99 -11.32 45.98 -12 47 C-12.99 47 -13.98 47 -15 47 C-16.15 43.56 -15.86 42.91 -14.64 39.62 C-14.32 38.74 -14 37.86 -13.67 36.95 C-13.14 35.53 -13.14 35.53 -12.6 34.08 C-12.24 33.11 -11.88 32.14 -11.52 31.14 C-10.37 28.02 -9.22 24.92 -8.06 21.81 C-7.29 19.71 -6.51 17.6 -5.74 15.49 C-3.83 10.33 -1.92 5.16 0 0 Z " fill="#02760D" transform="translate(562,572)"/>
<path d="M0 0 C2.5 2.21 3.56 3.98 4.55 7.15 C4.94 8.39 4.94 8.39 5.35 9.67 C5.62 10.56 5.89 11.45 6.17 12.38 C6.46 13.3 6.75 14.22 7.04 15.17 C7.64 17.11 8.24 19.06 8.84 21.01 C9.75 23.99 10.68 26.97 11.61 29.95 C12.2 31.84 12.78 33.73 13.36 35.62 C13.64 36.52 13.92 37.41 14.21 38.33 C14.58 39.58 14.58 39.58 14.97 40.85 C15.19 41.58 15.42 42.31 15.65 43.06 C16 45 16 45 15 48 C12.2 46.97 11.18 46.34 9.77 43.65 C9.45 42.76 9.14 41.86 8.81 40.94 C7.83 37.71 7.83 37.71 6 35 C4.66 34.84 3.31 34.75 1.96 34.68 C0.75 34.62 0.75 34.62 -0.49 34.56 C-1.76 34.5 -1.76 34.5 -3.06 34.44 C-4.34 34.37 -4.34 34.37 -5.65 34.31 C-7.77 34.2 -9.88 34.1 -12 34 C-12.31 34.77 -12.61 35.53 -12.93 36.32 C-13.95 38.88 -14.98 41.44 -16 44 C-17.65 43.67 -19.3 43.34 -21 43 C-18.07 34.49 -13.77 26.72 -9.55 18.81 C-6.24 12.6 -3.11 6.31 0 0 Z " fill="#02760D" transform="translate(794,577)"/>
<path d="M0 0 C0.66 1.32 1.32 2.64 2 4 C1.3 4.45 0.6 4.89 -0.12 5.36 C-1.03 5.96 -1.94 6.56 -2.88 7.19 C-3.78 7.78 -4.68 8.37 -5.62 8.98 C-8.22 11.19 -9.03 12.77 -10 16 C-7.04 16.88 -5.49 17.19 -2.57 16.04 C-1.76 15.57 -0.96 15.11 -0.12 14.62 C4.59 12.11 8.85 10.12 14.25 11.62 C17.7 14.34 18.84 17.03 19.56 21.31 C18.58 27.75 14.51 32.05 9.5 36 C6.29 38.12 3.88 38.54 0 38 C-0.66 37.67 -1.32 37.34 -2 37 C-1.78 35.16 -1.78 35.16 -1 33 C1 31.59 1 31.59 3.44 30.38 C6.08 29.04 7.9 28.1 10 26 C9.68 22.9 9.68 22.9 9 20 C7.48 20.65 7.48 20.65 5.94 21.31 C5.3 21.58 4.66 21.85 4 22.13 C2.14 22.94 0.32 23.81 -1.5 24.69 C-5.38 26.14 -7.9 26.53 -12 26 C-15.4 24.08 -16.69 22.87 -18 19.19 C-18 13.17 -15.19 8.19 -11 4 C-7.37 1.75 -4.32 0 0 0 Z " fill="#FAFCFC" transform="translate(415,145)"/>
<path d="M0 0 C2.8 2.8 4.22 4.93 6.07 8.37 C6.92 9.94 6.92 9.94 7.79 11.55 C8.37 12.65 8.96 13.74 9.56 14.88 C10.45 16.51 10.45 16.51 11.35 18.18 C15.81 26.47 15.81 26.47 17 29.79 C17.33 30.52 17.66 31.25 18 32 C19.49 32.5 19.49 32.5 21 33 C21.09 32.29 21.17 31.59 21.26 30.86 C21.65 27.66 22.04 24.45 22.44 21.25 C22.57 20.14 22.71 19.03 22.85 17.88 C22.98 16.81 23.11 15.74 23.25 14.64 C23.37 13.66 23.49 12.67 23.61 11.66 C24.32 6.82 24.32 6.82 25 5 C25.99 4.67 26.98 4.34 28 4 C29.67 5.67 29.17 7.65 29.19 9.95 C29.12 18.29 28.04 26.49 27 34.75 C26.81 36.33 26.61 37.92 26.42 39.5 C25.96 43.33 25.48 47.17 25 51 C24.67 50.01 24.34 49.02 24 48 C23.38 47.72 22.75 47.44 22.11 47.15 C19.16 45.54 18.57 43.66 17.19 40.62 C14.59 35.13 11.68 29.97 8.52 24.79 C6.96 21.92 5.94 19.12 5 16 C4.34 16 3.68 16 3 16 C2.95 17.16 2.9 18.32 2.85 19.52 C2.44 28.47 1.78 37.19 0 46 C-1.65 45.67 -3.3 45.34 -5 45 C-3.35 30.15 -1.7 15.3 0 0 Z " fill="#02760D" transform="translate(827,580)"/>
<path d="M0 0 C0.99 0.66 1.98 1.32 3 2 C3 3.32 3 4.64 3 6 C1.4 6.67 -0.21 7.34 -1.81 8 C-2.71 8.37 -3.6 8.74 -4.52 9.12 C-7 10 -7 10 -10 10 C-9.67 11.98 -9.34 13.96 -9 16 C-2.99 15.41 -2.99 15.41 2.94 14.31 C3.62 14.21 4.3 14.11 5 14 C5.66 14.66 6.32 15.32 7 16 C6.87 18.02 6.87 18.02 6 20 C4.26 21.05 4.26 21.05 2.12 21.75 C1.43 21.99 0.73 22.23 0.01 22.48 C-2 23 -2 23 -5 23 C-4.01 25.31 -3.02 27.62 -2 30 C-1.42 29.84 -0.84 29.69 -0.24 29.53 C4.53 28.34 8.13 27.75 13 29 C12.76 30.87 12.76 30.87 12 33 C10.14 34.2 10.14 34.2 7.81 35.12 C6.59 35.61 6.59 35.61 5.35 36.11 C4.19 36.55 4.19 36.55 3 37 C1.93 37.43 0.86 37.87 -0.25 38.31 C-3.37 39.09 -4.99 39.11 -8 38 C-12.7 34.47 -13.95 29.48 -15.75 24.12 C-16.22 22.8 -16.22 22.8 -16.71 21.44 C-19.86 12.27 -19.86 12.27 -19 8 C-15.49 5.1 -11.12 3.75 -6.88 2.19 C-5.66 1.73 -4.44 1.27 -3.18 0.79 C-2.13 0.53 -1.08 0.27 0 0 Z " fill="#FBFDFD" transform="translate(538,68)"/>
<path d="M0 0 C6.87 -0.76 13.49 0.82 20 3 C20.66 3.66 21.32 4.32 22 5 C21.62 7.12 21.62 7.12 21 9 C10.44 8.04 10.44 8.04 6 7 C6 8.98 6 10.96 6 13 C9.62 14.49 13.28 15.79 17 17 C17.33 18.65 17.66 20.3 18 22 C14.73 23.03 12.14 22.96 8.75 22.56 C7.86 22.46 6.97 22.36 6.05 22.25 C5.37 22.17 4.7 22.09 4 22 C3.67 23.65 3.34 25.3 3 27 C5.85 28.9 7.42 29.46 10.69 30.12 C11.5 30.29 12.3 30.46 13.14 30.63 C13.75 30.75 14.37 30.88 15 31 C15.33 32.98 15.66 34.96 16 37 C-1.35 35.77 -1.35 35.77 -7 32 C-6.56 25.22 -5.43 18.7 -4.06 12.06 C-3.89 11.22 -3.72 10.38 -3.55 9.51 C-3.29 8.32 -3.29 8.32 -3.04 7.1 C-2.88 6.38 -2.73 5.66 -2.58 4.93 C-2 3 -2 3 0 0 Z " fill="#FAFCFC" transform="translate(695,58)"/>
<path d="M0 0 C1.01 0.07 2.02 0.14 3.06 0.21 C7.33 6.61 6.21 15.74 6.06 23.21 C2.06 23.21 2.06 23.21 0.06 22.21 C-0.57 19.49 -0.57 19.49 -1.06 16.15 C-1.23 15.04 -1.4 13.94 -1.57 12.8 C-1.69 11.95 -1.81 11.09 -1.94 10.21 C-3.59 10.21 -5.24 10.21 -6.94 10.21 C-8.04 14.62 -8.01 18.69 -7.94 23.21 C-9.81 23.84 -9.81 23.84 -11.94 24.21 C-14.33 21.82 -14.25 20.98 -14.5 17.71 C-14.75 14.33 -14.75 14.33 -15.94 11.21 C-18.25 11.21 -20.56 11.21 -22.94 11.21 C-22.94 16.16 -22.94 21.11 -22.94 26.21 C-24.26 26.21 -25.58 26.21 -26.94 26.21 C-29.25 22.5 -29.37 19.01 -29.62 14.71 C-29.75 12.75 -29.75 12.75 -29.89 10.74 C-29.93 7.9 -29.84 5.87 -28.94 3.21 C-23.54 1.45 -18.6 0.81 -12.94 0.59 C-12.17 0.55 -11.4 0.51 -10.61 0.47 C-9.1 0.4 -7.59 0.34 -6.08 0.28 C-4.05 0.21 -2.03 0.11 0 0 Z " fill="#FAFCFC" transform="translate(963.9375,345.7890625)"/>
<path d="M0 0 C1.32 0 2.64 0 4 0 C5.58 4.26 6.36 8.1 6.69 12.62 C6.77 13.73 6.86 14.84 6.95 15.98 C6.99 18.64 6.7 20.48 6 23 C-0.62 24.94 -6.93 25.48 -13.81 25.75 C-14.85 25.81 -15.88 25.86 -16.95 25.92 C-17.94 25.96 -18.94 26 -19.96 26.05 C-21.3 26.11 -21.3 26.11 -22.68 26.17 C-25 26 -25 26 -28 24 C-29.19 19.42 -29.12 14.82 -29.06 10.12 C-29.06 9.44 -29.05 8.75 -29.05 8.04 C-29.04 6.36 -29.02 4.68 -29 3 C-27.68 2.67 -26.36 2.34 -25 2 C-22.81 5.28 -22.65 6.83 -22.38 10.69 C-22.3 11.68 -22.23 12.68 -22.15 13.7 C-22.1 14.46 -22.05 15.22 -22 16 C-19.69 16.33 -17.38 16.66 -15 17 C-15 12.38 -15 7.76 -15 3 C-13.68 2.67 -12.36 2.34 -11 2 C-9 4 -9 4 -8.8 6.6 C-8.83 7.6 -8.85 8.6 -8.88 9.62 C-8.89 10.63 -8.91 11.63 -8.93 12.66 C-8.95 13.43 -8.98 14.21 -9 15 C-6.03 15.33 -3.06 15.66 0 16 C-0.13 14.52 -0.13 14.52 -0.25 13.01 C-0.36 11.73 -0.46 10.45 -0.56 9.12 C-0.67 7.85 -0.77 6.57 -0.88 5.26 C-1 2 -1 2 0 0 Z " fill="#F9FCFB" transform="translate(338,394)"/>
<path d="M0 0 C1.32 0 2.64 0 4 0 C6.76 4.14 5.82 7.32 5 12 C4.21 15.7 3.39 19.38 2.52 23.06 C1.71 25.92 1.71 25.92 3 28 C3.42 27.55 3.84 27.1 4.27 26.64 C6.18 24.6 8.12 22.58 10.06 20.56 C11.05 19.5 11.05 19.5 12.05 18.42 C17.66 12.65 17.66 12.65 22 12.03 C23.48 12.01 23.48 12.01 25 12 C25.81 14.12 25.81 14.12 26 17 C22.51 22.18 17.77 26.03 13 30 C12.24 30.66 11.48 31.32 10.7 32 C4.95 36.8 4.95 36.8 0.75 37.69 C-2.83 36.79 -4.56 35.8 -7 33 C-7.62 26.57 -6.02 20.5 -4.62 14.25 C-4.29 12.69 -4.29 12.69 -3.95 11.1 C-2.26 3.39 -2.26 3.39 0 0 Z " fill="#FAFCFC" transform="translate(791,91)"/>
<path d="M0 0 C1.32 0.33 2.64 0.66 4 1 C4.72 6.18 5.43 11.36 6.14 16.53 C6.38 18.29 6.62 20.05 6.86 21.81 C7.21 24.35 7.56 26.88 7.91 29.42 C8.02 30.2 8.12 30.99 8.24 31.79 C8.75 35.55 9.13 39.2 9 43 C7.68 43 6.36 43 5 43 C2.77 40.77 3.12 35.5 2.75 32.37 C2.6 28.89 2.6 28.89 1 26 C-0.85 25.96 -0.85 25.96 -3.04 26.12 C-3.76 26.16 -4.49 26.21 -5.24 26.25 C-6.17 26.31 -7.1 26.37 -8.06 26.44 C-11.01 26.62 -13.96 26.81 -17 27 C-16.34 33.27 -15.68 39.54 -15 46 C-16.98 46.5 -16.98 46.5 -19 47 C-21.31 43.54 -21.54 41.38 -22.07 37.28 C-22.16 36.62 -22.24 35.96 -22.33 35.28 C-22.51 33.88 -22.69 32.48 -22.86 31.08 C-23.12 28.97 -23.4 26.86 -23.68 24.75 C-24.61 17.48 -25.3 10.34 -25 3 C-23.68 3.33 -22.36 3.66 -21 4 C-20.8 5.14 -20.59 6.29 -20.38 7.46 C-20.11 8.96 -19.83 10.45 -19.56 11.94 C-19.43 12.69 -19.29 13.45 -19.15 14.22 C-18.76 17.92 -18.76 17.92 -17 21 C-15.15 21.04 -15.15 21.04 -12.96 20.88 C-12.16 20.83 -11.35 20.78 -10.51 20.73 C-9.66 20.68 -8.81 20.62 -7.94 20.56 C-6.66 20.48 -6.66 20.48 -5.35 20.4 C-3.23 20.27 -1.12 20.14 1 20 C0.84 18.72 0.69 17.45 0.53 16.13 C0.33 14.46 0.13 12.79 -0.06 11.12 C-0.17 10.28 -0.27 9.44 -0.38 8.57 C-0.47 7.77 -0.56 6.96 -0.66 6.13 C-0.75 5.39 -0.84 4.65 -0.93 3.88 C-1 2 -1 2 0 0 Z " fill="#02760D" transform="translate(414,586)"/>
<path d="M0 0 C1.88 3.12 1.88 3.12 3 6 C-1 6 -1 6 -3.62 4.44 C-8.23 2.48 -12.17 2.89 -17 4 C-17.99 4.66 -18.98 5.32 -20 6 C-20.58 9.46 -20.58 9.46 -20 13 C-16.63 16.6 -12.07 17.15 -7.44 18.12 C3.7 20.58 3.7 20.58 6.19 24.12 C8.18 27.93 8.77 30.68 8 35 C5.18 39.62 2.21 42.38 -3 44 C-9.62 44.79 -15.72 44.61 -21.57 41.22 C-23 40 -23 40 -24 37.25 C-24 36.51 -24 35.76 -24 35 C-22.25 34.25 -22.25 34.25 -20 34 C-17.94 35.88 -17.94 35.88 -16 38 C-11.29 39.57 -6.83 39.56 -2.12 38.12 C0.13 37.06 0.13 37.06 2 35 C2.44 31.6 2.54 29.75 0.5 26.93 C-2.92 24.29 -6.19 23.78 -10.38 23 C-16.1 21.93 -20.33 20.76 -25 17 C-26.8 13.55 -27.14 11.77 -26.44 7.94 C-24.1 3.16 -21.61 0.63 -16.62 -1.31 C-10.74 -2.43 -5.46 -2.73 0 0 Z " fill="#02760D" transform="translate(461,583)"/>
<path d="M0 0 C2.92 1.97 4.74 3.88 6.69 6.81 C6.69 7.47 6.69 8.13 6.69 8.81 C3.81 8.5 3.81 8.5 0.69 7.81 C0.03 6.82 -0.63 5.83 -1.31 4.81 C-6.44 3.46 -11.59 3.14 -16.31 5.81 C-17.25 9.11 -17.25 9.11 -17.31 12.81 C-13.69 16.57 -9.71 17.79 -4.81 19.12 C4.49 21.98 4.49 21.98 7.08 26.86 C8.26 30.65 8.7 33.93 7.69 37.81 C5.28 41.41 2.78 43.45 -1.31 44.81 C-9.39 45.67 -16.79 45.07 -23.31 39.81 C-24.59 37.14 -24.59 37.14 -25.31 34.81 C-23.99 34.15 -22.67 33.49 -21.31 32.81 C-20.94 33.74 -20.94 33.74 -20.56 34.69 C-18.79 37.71 -16.76 38.3 -13.56 39.44 C-8.82 40.23 -4.83 40.35 -0.31 38.75 C2.05 36.86 2.05 36.86 2.12 33.31 C1.94 29.71 1.94 29.71 -0.31 26.81 C-2.14 25.85 -2.14 25.85 -4.27 25.16 C-5.05 24.88 -5.84 24.6 -6.64 24.3 C-8.28 23.73 -9.93 23.16 -11.57 22.59 C-16.5 20.8 -20.07 19.15 -23.31 14.81 C-23.93 11.31 -23.36 8.2 -22.31 4.81 C-20.06 2.31 -20.06 2.31 -17.31 0.81 C-16.57 0.4 -15.83 -0.01 -15.06 -0.44 C-9.83 -1.86 -5.11 -1.83 0 0 Z " fill="#02760D" transform="translate(726.3125,574.1875)"/>
<path d="M0 0 C2.87 2.14 3.87 4.41 5.25 7.67 C2.72 7.2 1.12 6.59 -1.07 5.17 C-4.89 3.04 -8.36 2.18 -12.72 3.07 C-14.92 3.76 -14.92 3.76 -17.75 5.67 C-19.08 8.61 -19.08 8.61 -18.75 11.67 C-16.53 14.6 -14.05 15.47 -10.63 16.61 C3.12 21.43 3.12 21.43 6.81 25.48 C8.56 29.37 8.99 31.45 8.25 35.67 C5.94 39.82 3.09 42.78 -1.5 44.17 C-9.11 45.46 -15.86 44.49 -22.26 40.08 C-23.75 38.67 -23.75 38.67 -24.75 35.86 C-24.75 35.14 -24.75 34.42 -24.75 33.67 C-23.07 32.86 -23.07 32.86 -20.75 32.67 C-18.07 35.05 -18.07 35.05 -15.75 37.67 C-13.89 39.53 -10.93 38.89 -8.44 38.92 C-6.71 38.96 -6.71 38.96 -4.95 39 C-1.51 38.65 -0.14 38.14 2.25 35.67 C2.91 32.71 2.91 32.71 2.25 29.67 C-0.83 25.69 -4.4 24.56 -9.07 23.23 C-14.75 21.46 -19.44 19.89 -23.75 15.67 C-25.25 11.85 -24.84 10 -23.75 6.05 C-18.88 -2.18 -8.51 -4.11 0 0 Z " fill="#02760D" transform="translate(616.75390625,573.328125)"/>
<path d="M0 0 C0.66 1.32 1.32 2.64 2 4 C-8.39 4.99 -8.39 4.99 -19 6 C-19 10.62 -19 15.24 -19 20 C-17.58 19.99 -16.16 19.98 -14.7 19.96 C-12.84 19.96 -10.98 19.95 -9.12 19.94 C-8.19 19.93 -7.25 19.92 -6.29 19.91 C-4.94 19.91 -4.94 19.91 -3.57 19.9 C-2.33 19.89 -2.33 19.89 -1.06 19.89 C1 20 1 20 3 21 C2.67 22.32 2.34 23.64 2 25 C-4.6 25.33 -11.2 25.66 -18 26 C-17.34 30.62 -16.68 35.24 -16 40 C-9.4 40 -2.8 40 4 40 C4.33 41.32 4.66 42.64 5 44 C-13.04 46.48 -13.04 46.48 -20 46 C-23.05 42.95 -22.61 39.24 -22.89 35.12 C-22.95 34.24 -23.02 33.36 -23.09 32.46 C-23.22 30.6 -23.36 28.73 -23.49 26.87 C-23.69 24.01 -23.9 21.15 -24.12 18.3 C-24.25 16.49 -24.38 14.68 -24.51 12.88 C-24.58 12.02 -24.64 11.16 -24.71 10.27 C-25.12 4.23 -25.12 4.23 -24 2 C-21.46 1.51 -19 1.16 -16.44 0.88 C-15.4 0.75 -15.4 0.75 -14.34 0.61 C-9.53 0.05 -4.84 -0.08 0 0 Z " fill="#02760D" transform="translate(504,577)"/>
<path d="M0 0 C2.66 2.27 3.77 4.61 5.12 7.81 C1.72 7.41 0.14 6.82 -2.62 4.69 C-7 2.16 -10.07 2.74 -14.88 3.81 C-15.87 4.14 -16.86 4.47 -17.88 4.81 C-18.21 7.45 -18.53 10.09 -18.88 12.81 C-13.65 16.26 -8.23 18.12 -2.21 19.71 C1.45 20.79 3.09 21.77 5.55 24.73 C7.58 28.71 8.14 31.46 7.12 35.81 C5.01 39.61 2.18 42.25 -1.88 43.81 C-9.74 44.74 -16.4 44.41 -23.3 40.39 C-25.35 38.33 -25.55 36.65 -25.88 33.81 C-24.25 33 -24.25 33 -21.88 32.81 C-18.75 35.19 -18.75 35.19 -15.88 37.81 C-13.31 39.1 -11.36 39.02 -8.5 39.06 C-7.07 39.1 -7.07 39.1 -5.6 39.14 C-2.45 38.76 -1.11 38.04 1.12 35.81 C1.6 32.61 1.57 30.66 0.05 27.77 C-2.6 25.07 -5.58 24.37 -9.12 23.38 C-14.84 21.6 -19.58 20.1 -23.88 15.81 C-24.99 12.14 -25.12 9.85 -24.25 6.12 C-21.97 2.29 -19.11 0.4 -15.12 -1.5 C-9.78 -2.63 -5.04 -2.08 0 0 Z " fill="#02760D" transform="translate(661.875,573.1875)"/>
<path d="M0 0 C0.33 1.32 0.66 2.64 1 4 C-2.36 6.96 -5.69 7.92 -10 9 C-9.67 10.65 -9.34 12.3 -9 14 C-7.34 14.82 -7.34 14.82 -5 15 C-3.85 14.5 -2.69 14.01 -1.5 13.5 C2 12 2 12 4.44 12.31 C4.95 12.54 5.47 12.77 6 13 C6 14.32 6 15.64 6 17 C4.32 18.48 4.32 18.48 2.12 19.75 C1.41 20.18 0.69 20.61 -0.05 21.05 C-2 22 -2 22 -4 22 C-3.71 22.58 -3.42 23.16 -3.12 23.76 C-0.95 28.34 0.53 31.8 0 37 C-2.19 37.81 -2.19 37.81 -5 38 C-9.85 34.06 -12.49 29.09 -15.38 23.62 C-15.84 22.8 -16.3 21.97 -16.78 21.12 C-18.82 17.29 -19.96 14.56 -20.25 10.18 C-18.48 5.67 -15.93 4.52 -11.69 2.5 C-11.01 2.14 -10.33 1.78 -9.63 1.41 C-5.97 -0.43 -3.9 -1.29 0 0 Z " fill="#FAFCFC" transform="translate(497,87)"/>
<path d="M0 0 C1.68 0.29 3.34 0.62 5 1 C5.74 2.57 5.74 2.57 6 5 C4.79 7.4 3.56 9.56 2.12 11.81 C-1.6 17.64 -3 22.25 -3 29.31 C-3 32 -3 32 -4 34 C-6.88 34.12 -6.88 34.12 -10 34 C-12 32 -12 32 -12.19 28.06 C-12.74 21.64 -16.42 17.16 -20 12 C-23.03 7.37 -23.03 7.37 -22.75 4.25 C-22 2 -22 2 -21 1 C-19.33 0.96 -17.67 0.96 -16 1 C-15.16 2.46 -14.33 3.91 -13.5 5.38 C-13.04 6.19 -12.57 7 -12.09 7.84 C-11 10 -11 10 -11 12 C-9.68 12.33 -8.36 12.66 -7 13 C-6.58 12.15 -6.16 11.29 -5.72 10.41 C-5.17 9.31 -4.63 8.2 -4.06 7.06 C-3.52 5.96 -2.97 4.86 -2.41 3.72 C-1 1 -1 1 0 0 Z " fill="#FAFCFC" transform="translate(632,53)"/>
<path d="M0 0 C2.94 0.28 5.88 0.56 8.83 0.84 C10.71 1.01 12.6 1.19 14.48 1.37 C15.35 1.46 16.23 1.54 17.12 1.62 C21.47 2.05 25.75 2.56 30.05 3.35 C30.14 3.96 30.22 4.58 30.3 5.22 C30.85 7.53 30.85 7.53 33.1 8.48 C33.74 8.76 34.39 9.05 35.05 9.35 C28.42 9.45 21.94 9.18 15.34 8.51 C14.44 8.42 13.55 8.33 12.63 8.24 C9.79 7.97 6.95 7.69 4.12 7.41 C0.4 7.04 -3.32 6.68 -7.04 6.32 C-7.94 6.23 -8.85 6.14 -9.79 6.05 C-16.87 5.4 -23.95 4.96 -31.05 4.68 C-34.24 4.55 -36.9 4.36 -39.95 3.35 C-39.95 2.03 -39.95 0.71 -39.95 -0.65 C-26.5 -2.45 -13.44 -1.3 0 0 Z " fill="#01760C" transform="translate(799.947265625,661.654052734375)"/>
<path d="M0 0 C2.06 0.44 2.06 0.44 4 1 C5.12 4.36 4.86 6.57 4 9.98 C3.78 10.92 3.55 11.85 3.31 12.82 C3.06 13.78 2.82 14.75 2.56 15.75 C2.32 16.73 2.08 17.72 1.83 18.73 C1.23 21.16 0.62 23.58 0 26 C-1.66 26.38 -3.32 26.71 -5 27 C-5.33 26.67 -5.66 26.34 -6 26 C-6 23.67 -6 21.33 -6 19 C-6.33 18.01 -6.66 17.02 -7 16 C-8.05 15.9 -9.1 15.79 -10.19 15.69 C-25.32 13.79 -25.32 13.79 -31 10 C-31.25 6.94 -31.25 6.94 -31 4 C-30 3 -30 3 -27.12 2.78 C-21.95 2.86 -17.05 4.24 -12.06 5.5 C-11.09 5.74 -10.12 5.98 -9.12 6.22 C-6.75 6.81 -4.37 7.4 -2 8 C-1.86 6.87 -1.71 5.73 -1.56 4.56 C-1 1 -1 1 0 0 Z " fill="#FAFCFC" transform="translate(959,447)"/>
<path d="M0 0 C0.99 0 1.98 0 3 0 C4 6.62 4 6.62 4 10 C4.89 10.34 4.89 10.34 5.79 10.69 C8.47 11.72 11.14 12.77 13.81 13.81 C14.74 14.17 15.67 14.53 16.63 14.89 C17.52 15.24 18.41 15.6 19.33 15.96 C20.57 16.44 20.57 16.44 21.82 16.93 C24.08 18.04 25.44 19.04 27 21 C27.25 23.62 27.25 23.62 27 26 C26 27 26 27 23.51 27.28 C18.85 26.91 15.1 25.3 10.81 23.5 C9.22 22.84 7.62 22.18 6.02 21.53 C5.32 21.24 4.62 20.94 3.9 20.64 C1.86 19.84 1.86 19.84 -1 20 C-1.99 21.98 -2.98 23.96 -4 26 C-5.32 26 -6.64 26 -8 26 C-8.99 22.26 -9 20.04 -7.64 16.43 C-7.17 15.18 -7.17 15.18 -6.7 13.9 C-6.36 13.05 -6.03 12.19 -5.69 11.31 C-5.37 10.45 -5.04 9.58 -4.71 8.69 C-2.29 2.29 -2.29 2.29 0 0 Z " fill="#FAFCFC" transform="translate(335,255)"/>
<path d="M0 0 C0.33 1.65 0.66 3.3 1 5 C-2.09 6.76 -3.23 7 -7 7 C-6.88 7.6 -6.76 8.2 -6.63 8.82 C-6.08 11.56 -5.54 14.31 -5 17.06 C-4.71 18.48 -4.71 18.48 -4.42 19.92 C-3.42 25.03 -2.66 29.79 -3 35 C-3.33 35.33 -3.66 35.66 -4 36 C-6.34 35.71 -8.67 35.38 -11 35 C-11.25 33.95 -11.51 32.9 -11.77 31.82 C-13.57 24.43 -15.44 17.17 -18 10 C-20.31 10 -22.62 10 -25 10 C-25.33 8.35 -25.66 6.7 -26 5 C-23.46 4.35 -20.92 3.71 -18.38 3.06 C-17.66 2.88 -16.95 2.7 -16.21 2.51 C-10.79 1.14 -5.63 0 0 0 Z " fill="#FAFCFC" transform="translate(587,57)"/>
<path d="M0 0 C0 1.65 0 3.3 0 5 C-0.82 5.1 -1.64 5.2 -2.48 5.3 C-6.38 5.78 -10.28 6.27 -14.19 6.75 C-15.26 6.88 -15.26 6.88 -16.35 7.02 C-24.35 8.01 -32.35 9.03 -40.34 10.16 C-41.64 10.34 -42.94 10.52 -44.28 10.71 C-46.75 11.06 -49.22 11.42 -51.69 11.78 C-57.18 12.56 -62.45 13.23 -68 13 C-67.01 12.34 -66.02 11.68 -65 11 C-65.33 9.68 -65.66 8.36 -66 7 C-60.31 6.18 -54.62 5.36 -48.93 4.55 C-47.01 4.27 -45.08 3.99 -43.15 3.71 C-33.77 2.36 -24.4 1.02 -15 -0.2 C-13.78 -0.35 -12.57 -0.51 -11.31 -0.67 C-2.99 -1.5 -2.99 -1.5 0 0 Z " fill="#01770B" transform="translate(426,538)"/>
<path d="M0 0 C0.99 0 1.98 0 3 0 C5.61 4.67 4.61 8.29 3.25 13.19 C3.07 13.91 2.88 14.64 2.7 15.38 C1.29 20.71 1.29 20.71 -1 23 C-6.99 23.54 -12.35 22.18 -18.12 20.69 C-19.45 20.37 -19.45 20.37 -20.79 20.04 C-29.35 17.88 -29.35 17.88 -33 15 C-33.31 12.31 -33.31 12.31 -33 10 C-26.93 6.95 -21.86 8.78 -15.62 10.38 C-14.6 10.62 -13.58 10.87 -12.53 11.12 C-10.01 11.74 -7.51 12.36 -5 13 C-4.72 12.15 -4.45 11.29 -4.16 10.41 C-3.8 9.31 -3.44 8.2 -3.06 7.06 C-2.7 5.96 -2.34 4.86 -1.97 3.72 C-1 1 -1 1 0 0 Z " fill="#F9FCFB" transform="translate(349,302)"/>
<path d="M0 0 C0.66 1.65 1.32 3.3 2 5 C-0.13 7.13 -4.62 6.66 -7.57 6.94 C-8.43 7.02 -9.3 7.11 -10.2 7.2 C-12.98 7.47 -15.77 7.73 -18.56 8 C-21.33 8.27 -24.09 8.54 -26.85 8.8 C-28.58 8.97 -30.3 9.14 -32.02 9.3 C-35.82 9.67 -39.61 10.07 -43.39 10.55 C-46.65 10.96 -49.73 11.1 -53 11.06 C-53.95 11.05 -54.9 11.04 -55.88 11.04 C-56.58 11.02 -57.28 11.01 -58 11 C-58 9.68 -58 8.36 -58 7 C-58.66 6.67 -59.32 6.34 -60 6 C-47.6 4.05 -35.18 2.53 -22.69 1.31 C-22.02 1.25 -21.35 1.18 -20.66 1.11 C-13.75 0.43 -6.94 -0.18 0 0 Z " fill="#02760D" transform="translate(484,531)"/>
<path d="M0 0 C2.38 2.06 2.38 2.06 4 5 C4.2 8.67 3.97 10.89 1.5 13.71 C-2.07 16.87 -5.63 19.64 -10.44 20.38 C-14.01 19.85 -15.57 18.64 -18 16 C-18.89 11.92 -18.25 10.39 -16 6.88 C-12.16 2.73 -5.81 -1.45 0 0 Z " fill="#007E03" transform="translate(902,192)"/>
<path d="M0 0 C1.61 0.04 1.61 0.04 3.26 0.09 C4.33 0.14 5.4 0.19 6.5 0.25 C8 0.32 8 0.32 9.53 0.39 C12 1 12 1 13.34 3.05 C13.56 3.69 13.78 4.34 14 5 C11.25 5.92 9.64 6.11 6.81 6.06 C4.93 6.03 4.93 6.03 3 6 C3.01 6.7 3.02 7.4 3.04 8.12 C3.11 16.21 2.65 24.19 2 32.25 C1.86 34.1 1.86 34.1 1.71 35.99 C1.48 38.99 1.24 42 1 45 C-0.65 44.67 -2.3 44.34 -4 44 C-3.95 42.97 -3.95 42.97 -3.91 41.91 C-3.09 23.96 -3.09 23.96 -3 6 C-5.97 5.01 -8.94 4.02 -12 3 C-12 2.34 -12 1.68 -12 1 C-8.33 -0.84 -4.03 -0.12 0 0 Z " fill="#02760D" transform="translate(758,575)"/>
<path d="M0 0 C1.55 0.21 1.55 0.21 3.12 0.42 C4.21 0.57 5.29 0.72 6.4 0.88 C8.03 1.1 8.03 1.1 9.7 1.33 C12.39 1.69 15.08 2.06 17.77 2.44 C18.1 3.76 18.43 5.08 18.77 6.44 C15.78 7.44 14.6 7.45 11.59 7 C10.33 6.82 9.07 6.63 7.77 6.44 C7.69 7.09 7.61 7.74 7.53 8.41 C6 20.76 4.45 33.11 2.77 45.44 C1.12 45.11 -0.53 44.78 -2.23 44.44 C-1.01 31.69 0.65 19.08 2.77 6.44 C2.11 6.44 1.45 6.44 0.77 6.44 C0.77 5.78 0.77 5.12 0.77 4.44 C-1.54 4.44 -3.85 4.44 -6.23 4.44 C-6.56 3.12 -6.89 1.8 -7.23 0.44 C-4.54 -0.9 -2.96 -0.41 0 0 Z " fill="#02760D" transform="translate(877.2265625,586.55859375)"/>
<path d="M0 0 C1.91 0.81 3.52 1.52 5 3 C5.56 6.55 5.13 7.81 3.06 10.8 C2.19 11.77 1.33 12.75 0.44 13.75 C-0.48 14.8 -1.39 15.85 -2.31 16.91 C-2.76 17.42 -3.22 17.94 -3.69 18.48 C-6.61 21.86 -9.29 25.45 -12 29 C-14.31 28.67 -16.62 28.34 -19 28 C-18.71 21.49 -16.37 18.23 -12.19 13.38 C-11.65 12.73 -11.12 12.09 -10.57 11.43 C-9.53 10.18 -8.48 8.94 -7.43 7.7 C-6.17 6.2 -4.95 4.65 -3.74 3.1 C-2 1 -2 1 0 0 Z " fill="#FBFDFD" transform="translate(838,120)"/>
<path d="M0 0 C13.53 0.66 27.06 1.32 41 2 C41 2.66 41 3.32 41 4 C37.7 4 34.4 4 31 4 C31.5 5.98 31.5 5.98 32 8 C24.37 8.09 16.82 7.84 9.21 7.34 C8.13 7.28 7.06 7.21 5.96 7.14 C2.58 6.93 -0.81 6.72 -4.19 6.5 C-6.5 6.36 -8.81 6.21 -11.12 6.07 C-16.75 5.71 -22.37 5.36 -28 5 C-27.67 4.01 -27.34 3.02 -27 2 C-11 2 -11 2 -9 3 C-9 3.66 -9 4.32 -9 5 C-6.69 5 -4.38 5 -2 5 C-1.67 4.01 -1.34 3.02 -1 2 C-1 2.99 -1 3.98 -1 5 C-0.34 4.34 0.32 3.68 1 3 C0.67 2.01 0.34 1.02 0 0 Z " fill="#01760C" transform="translate(725,526)"/>
<path d="M0 0 C0.79 0.06 1.57 0.12 2.38 0.19 C4.61 0.42 4.61 0.42 8.25 1.25 C9.64 3.27 9.64 3.27 10.25 5.25 C10.91 5.58 11.57 5.91 12.25 6.25 C11.25 7.25 11.25 7.25 8.55 7.38 C7.42 7.38 6.29 7.38 5.12 7.38 C4.01 7.38 2.89 7.38 1.74 7.38 C-1.75 7.25 -1.75 7.25 -5.01 6.77 C-10.74 5.97 -16.5 5.9 -22.28 5.73 C-23.18 5.7 -24.08 5.66 -25.01 5.63 C-25.83 5.6 -26.64 5.58 -27.48 5.55 C-29.94 5.23 -31.61 4.48 -33.75 3.25 C-33.75 2.26 -33.75 1.27 -33.75 0.25 C-22.47 -1.21 -11.31 -1.05 0 0 Z " fill="#01770B" transform="translate(789.75,529.75)"/>
<path d="M0 0 C13 -0.05 26.01 -0.08 39.01 -0.1 C45.05 -0.11 51.09 -0.13 57.12 -0.15 C62.95 -0.17 68.77 -0.18 74.59 -0.19 C76.82 -0.19 79.04 -0.2 81.27 -0.21 C84.38 -0.23 87.49 -0.23 90.59 -0.23 C91.99 -0.24 91.99 -0.24 93.41 -0.25 C94.25 -0.25 95.09 -0.24 95.96 -0.24 C96.7 -0.24 97.43 -0.24 98.19 -0.25 C100 0 100 0 102 2 C102.2 4.6 102.2 4.6 102.12 7.62 C102.11 8.63 102.09 9.63 102.07 10.66 C102.05 11.43 102.02 12.21 102 13 C101.67 13 101.34 13 101 13 C100.94 12.36 100.88 11.72 100.82 11.07 C100.73 10.24 100.65 9.41 100.56 8.56 C100.48 7.74 100.4 6.92 100.32 6.07 C100.21 4.01 100.21 4.01 99 3 C96.05 2.9 93.12 2.87 90.17 2.89 C89.24 2.89 88.31 2.89 87.36 2.89 C84.28 2.89 81.2 2.89 78.12 2.9 C75.99 2.9 73.86 2.91 71.74 2.91 C66.12 2.91 60.51 2.92 54.89 2.93 C49.17 2.94 43.44 2.95 37.72 2.95 C26.48 2.96 15.24 2.98 4 3 C2.42 8.48 2.42 8.48 1 14 C1 13.34 1 12.68 1 12 C0.34 12 -0.32 12 -1 12 C-1.03 10.38 -1.05 8.75 -1.06 7.12 C-1.07 6.22 -1.09 5.32 -1.1 4.38 C-1 2 -1 2 0 0 Z " fill="#017908" transform="translate(635,230)"/>
<path d="M0 0 C27.69 -0.14 55.33 0.18 83 1 C83 1.66 83 2.32 83 3 C54.29 3 25.58 3 -4 3 C-2.68 2.67 -1.36 2.34 0 2 C0 1.34 0 0.68 0 0 Z " fill="#01770A" transform="translate(617,666)"/>
<path d="M0 0 C0.99 0.66 1.98 1.32 3 2 C3.32 3.87 3.32 3.87 3.25 6.17 C3.23 7.04 3.21 7.9 3.19 8.78 C3.15 9.71 3.11 10.64 3.07 11.6 C3.03 13.03 3.03 13.03 2.99 14.49 C2.91 17.53 2.8 20.58 2.69 23.62 C2.62 25.69 2.56 27.75 2.5 29.81 C2.35 34.88 2.18 39.94 2 45 C0.35 44.67 -1.3 44.34 -3 44 C-3.13 33.85 -2.97 23.71 -2.62 13.56 C-2.59 12.45 -2.56 11.35 -2.53 10.21 C-2.49 9.17 -2.45 8.13 -2.41 7.07 C-2.38 6.14 -2.35 5.21 -2.32 4.25 C-2 2 -2 2 0 0 Z " fill="#01760C" transform="translate(685,572)"/>
<path d="M0 0 C0.33 0 0.66 0 1 0 C1.02 13.08 1.04 26.16 1.05 39.25 C1.06 45.32 1.06 51.4 1.08 57.47 C1.09 63.33 1.09 69.19 1.09 75.06 C1.1 77.29 1.1 79.53 1.11 81.77 C1.11 84.9 1.11 88.03 1.11 91.16 C1.12 92.09 1.12 93.01 1.12 93.97 C1.12 98.11 1.06 101.96 0 106 C-0.33 106 -0.66 106 -1 106 C-1 105.34 -0.99 104.67 -0.99 103.99 C-0.94 96.99 -0.91 90 -0.89 83.01 C-0.88 80.41 -0.87 77.81 -0.85 75.21 C-0.68 55.72 -0.68 55.72 -2.76 36.38 C-3.04 32.47 -2.16 29.72 -1 26 C-0.75 23.16 -0.75 23.16 -0.84 20.39 C-0.86 18.89 -0.86 18.89 -0.87 17.36 C-0.89 16.33 -0.92 15.31 -0.94 14.25 C-0.97 12.19 -1 10.14 -1.03 8.08 C-1.05 7.17 -1.06 6.27 -1.08 5.34 C-1 3 -1 3 0 0 Z " fill="#02760D" transform="translate(593,382)"/>
<path d="M0 0 C0.33 0 0.66 0 1 0 C1 52.47 1 104.94 1 159 C-3.14 160.04 -6.02 159.91 -10.25 159.56 C-11.51 159.46 -12.78 159.36 -14.08 159.25 C-15.04 159.17 -16.01 159.09 -17 159 C-17 158.67 -17 158.34 -17 158 C-16.01 157.95 -15.03 157.9 -14.01 157.85 C-12.09 157.74 -12.09 157.74 -10.12 157.62 C-8.21 157.52 -8.21 157.52 -6.26 157.41 C-2.92 157.33 -2.92 157.33 -1 155 C-0.68 152.21 -0.68 152.21 -0.72 148.88 C-0.71 147.57 -0.7 146.26 -0.69 144.91 C-0.69 143.46 -0.68 142 -0.68 140.54 C-0.67 139.02 -0.66 137.49 -0.65 135.96 C-0.62 131.81 -0.61 127.65 -0.6 123.5 C-0.58 119.16 -0.55 114.82 -0.53 110.48 C-0.48 102.26 -0.44 94.04 -0.41 85.82 C-0.37 76.47 -0.32 67.11 -0.27 57.75 C-0.17 38.5 -0.08 19.25 0 0 Z " fill="#02760D" transform="translate(827,368)"/>
<path d="M0 0 C0 0.66 0 1.32 0 2 C2.64 2.33 5.28 2.66 8 3 C8 3.33 8 3.66 8 4 C3.98 4.29 -0.04 4.57 -4.06 4.85 C-5.43 4.95 -6.79 5.05 -8.16 5.15 C-10.13 5.29 -12.1 5.42 -14.07 5.56 C-15.25 5.65 -16.44 5.73 -17.66 5.82 C-20.78 5.99 -23.87 6.03 -27 6 C-27.33 4.02 -27.66 2.04 -28 0 C-20.71 -2.43 -6.61 -4.41 0 0 Z " fill="#04770E" transform="translate(512,531)"/>
<path d="M0 0 C0.76 0.05 1.53 0.1 2.31 0.15 C7.89 0.52 13.45 1.01 19 1.62 C19 2.28 19 2.95 19 3.62 C19.66 3.62 20.32 3.62 21 3.62 C21 4.95 21 6.26 21 7.62 C12.14 7.92 3.74 7.07 -5 5.62 C-5.33 4.3 -5.66 2.99 -6 1.62 C-7.32 1.29 -8.64 0.97 -10 0.62 C-6.82 -0.97 -3.46 -0.24 0 0 Z " fill="#02760D" transform="translate(806,531.375)"/>
<path d="M0 0 C5.75 1.75 5.75 1.75 8 4 C7.04 4.37 7.04 4.37 6.06 4.75 C3.85 5.79 3.85 5.79 3.38 7.84 C2.77 11.3 2.94 14.76 3 18.25 C3.04 24.49 2.97 30.7 2.62 36.94 C2.52 38.87 2.52 38.87 2.41 40.84 C2 44 2 44 0 47 C-1.05 41.86 -1.15 36.92 -1.13 31.7 C-1.13 30.82 -1.13 29.95 -1.14 29.04 C-1.14 27.2 -1.13 25.36 -1.13 23.51 C-1.12 20.68 -1.13 17.85 -1.14 15.01 C-1.14 13.22 -1.13 11.43 -1.13 9.64 C-1.13 8.79 -1.14 7.93 -1.14 7.06 C-1.11 1.11 -1.11 1.11 0 0 Z " fill="#01760C" transform="translate(708,144)"/>
<path d="M0 0 C0.33 0 0.66 0 1 0 C1.26 0.8 1.26 0.8 1.52 1.62 C3.43 7.52 5.64 13.26 8 19 C4.85 20.05 2.61 20.1 -0.69 20.06 C-1.68 20.05 -2.68 20.04 -3.7 20.04 C-4.84 20.02 -4.84 20.02 -6 20 C-7.36 15.93 -5.95 13.19 -4.56 9.31 C-4.32 8.61 -4.08 7.91 -3.83 7.19 C-3.23 5.45 -2.61 3.73 -2 2 C-1.34 2 -0.68 2 0 2 C0 1.34 0 0.68 0 0 Z " fill="#F9FCFB" transform="translate(564,582)"/>
<path d="M0 0 C0.66 0 1.32 0 2 0 C2.84 2.6 3.67 5.21 4.5 7.81 C4.74 8.55 4.98 9.29 5.22 10.05 C6.2 13.13 7 15.74 7 19 C0.07 18.5 0.07 18.5 -7 18 C-6.14 12.86 -5.27 10.09 -2.94 5.62 C-2.39 4.57 -1.84 3.51 -1.28 2.41 C-0.86 1.62 -0.43 0.82 0 0 Z " fill="#F9FCFB" transform="translate(793,588)"/>
<path d="M0 0 C6.46 -0.03 12.91 -0.04 19.37 -0.05 C21.56 -0.06 23.75 -0.07 25.94 -0.08 C49.29 -0.17 49.29 -0.17 60 1 C60 1.66 60 2.32 60 3 C39.21 3 18.42 3 -3 3 C-2.01 2.67 -1.02 2.34 0 2 C0 1.34 0 0.68 0 0 Z " fill="#017908" transform="translate(616,17)"/>
<path d="M0 0 C1.29 -0.01 2.59 -0.03 3.92 -0.04 C7.01 0.17 8.68 0.55 11.25 2.19 C9.5 4.37 8.65 5.13 5.84 5.55 C4.96 5.53 4.09 5.52 3.19 5.5 C2.31 5.5 1.43 5.49 0.53 5.49 C-1.75 5.19 -1.75 5.19 -3.75 3.19 C-4.74 3.19 -5.73 3.19 -6.75 3.19 C-11.08 3.19 -15.42 3.19 -19.75 3.19 C-20.08 3.85 -20.41 4.51 -20.75 5.19 C-22.07 4.86 -23.39 4.53 -24.75 4.19 C-24.75 3.2 -24.75 2.21 -24.75 1.19 C-16.5 0.57 -8.27 0.08 0 0 Z " fill="#007E02" transform="translate(717.75,525.8125)"/>
<path d="M0 0 C0.9 0 1.79 0.01 2.71 0.01 C4.12 0.02 4.12 0.02 5.55 0.04 C6.5 0.04 7.44 0.04 8.42 0.05 C10.76 0.06 13.09 0.08 15.43 0.1 C15.76 0.76 16.09 1.42 16.43 2.1 C14.52 2.17 14.52 2.17 12.56 2.25 C10.89 2.32 9.22 2.4 7.55 2.47 C6.29 2.52 6.29 2.52 5 2.57 C3.8 2.62 3.8 2.62 2.56 2.68 C1.82 2.72 1.08 2.75 0.31 2.78 C-1.81 2.95 -1.81 2.95 -3.57 5.1 C-3.82 7.96 -3.94 10.74 -3.98 13.61 C-4 14.45 -4.02 15.29 -4.04 16.15 C-4.1 18.84 -4.15 21.53 -4.2 24.22 C-4.23 26.04 -4.27 27.87 -4.31 29.69 C-4.41 34.16 -4.49 38.63 -4.57 43.1 C-4.9 43.1 -5.23 43.1 -5.57 43.1 C-6.07 22.31 -6.07 22.31 -6.57 1.1 C-4.17 -0.1 -2.68 -0.02 0 0 Z " fill="#01770A" transform="translate(681.5703125,298.90234375)"/>
<path d="M0 0 C3 1 3 1 4.19 2.88 C5 5 5 5 5 8 C5.66 8 6.32 8 7 8 C11.54 15.46 14.3 22.44 16 31 C15.34 31 14.68 31 14 31 C10.47 24.26 7.31 17.37 4.19 10.44 C3.78 9.53 3.37 8.63 2.95 7.69 C2.57 6.85 2.19 6 1.79 5.12 C1.45 4.35 1.1 3.58 0.75 2.79 C0 1 0 1 0 0 Z " fill="#01760C" transform="translate(546,447)"/>
<path d="M0 0 C1.28 -0 2.56 -0 3.88 -0 C4.55 -0 5.21 0 5.9 0 C7.93 0.01 9.96 0 11.99 -0 C13.91 -0 13.91 -0 15.88 0 C17.05 0 18.23 0 19.44 0 C22.3 0.12 24.86 0.48 27.64 1.13 C27.64 1.79 27.64 2.45 27.64 3.13 C26.05 3.12 26.05 3.12 24.43 3.1 C23.04 3.09 21.65 3.08 20.26 3.07 C19.21 3.06 19.21 3.06 18.14 3.04 C14.26 2.95 14.26 2.95 10.64 4.13 C10.64 3.47 10.64 2.81 10.64 2.13 C9.65 2.46 8.66 2.79 7.64 3.13 C5.47 3.25 3.3 3.31 1.14 3.32 C-0.01 3.33 -1.15 3.35 -2.33 3.36 C-5.36 3.13 -5.36 3.13 -8.36 1.13 C-5.54 -0.28 -3.16 0 0 0 Z " fill="#007A07" transform="translate(742.36328125,300.8671875)"/>
<path d="M0 0 C2.78 1.06 4 2.01 5.88 4.38 C7 7 7 7 6.44 9.25 C5 11 5 11 3.25 12.06 C-0.49 11.96 -2.33 9.49 -5 7 C-3.71 4.12 -2.34 2.13 0 0 Z " fill="#007E02" transform="translate(866,151)"/>
<path d="M0 0 C2.92 0.45 5.83 0.91 8.75 1.38 C9.58 1.5 10.4 1.63 11.25 1.76 C12.05 1.89 12.85 2.02 13.67 2.15 C14.41 2.26 15.14 2.38 15.89 2.5 C18.15 3.04 19.97 3.89 22 5 C19.59 5.7 17.17 6.38 14.75 7.06 C14.07 7.26 13.39 7.46 12.68 7.67 C6.42 9.4 6.42 9.4 3 8 C3.99 8 4.98 8 6 8 C5.97 6.03 5.97 6.03 5 4 C2 2.7 2 2.7 -1 2 C-0.67 1.34 -0.34 0.68 0 0 Z " fill="#01760C" transform="translate(931,311)"/>
<path d="M0 0 C1.3 0.91 2.59 1.83 3.88 2.75 C4.59 3.26 5.31 3.77 6.05 4.3 C8.09 6.08 8.98 7.53 10 10 C5.25 14 5.25 14 3 14 C-1.08 5.96 -1.08 5.96 -0.75 1.94 C-0.5 1.3 -0.25 0.66 0 0 Z " fill="#02760D" transform="translate(448,124)"/>
<path d="M0 0 C-0.33 2.64 -0.66 5.28 -1 8 C-5.85 7.22 -10.38 5.6 -15 4 C-10.92 -0.5 -5.82 -1.76 0 0 Z " fill="#04770F" transform="translate(332,356)"/>
<path d="M0 0 C0.78 -0 1.55 -0.01 2.35 -0.01 C4.38 0.12 4.38 0.12 6.38 1.12 C5.72 2.77 5.05 4.42 4.38 6.12 C0.75 6.12 -2.88 6.12 -6.62 6.12 C-7.29 4.48 -7.94 2.83 -8.62 1.12 C-5.68 0.28 -3.06 -0.01 0 0 Z " fill="#007E03" transform="translate(515.625,658.875)"/>
<path d="M0 0 C2.01 2.56 3.63 5.05 5 8 C5.66 8 6.32 8 7 8 C7 6.02 7 4.04 7 2 C7.33 2 7.66 2 8 2 C8 5.96 8 9.92 8 14 C5.67 14.04 3.33 14.04 1 14 C-0.81 12.19 -0.42 9.45 -0.62 7 C-0.72 5.91 -0.82 4.81 -0.91 3.69 C-0.94 2.8 -0.97 1.91 -1 1 C-0.67 0.67 -0.34 0.34 0 0 Z " fill="#01760C" transform="translate(315,397)"/>
<path d="M0 0 C0.72 -0.01 1.43 -0.02 2.17 -0.04 C5.95 -0.05 7.65 0.04 10.88 2.19 C8.88 5.19 8.88 5.19 6.44 5.94 C3.88 6.19 3.88 6.19 0.88 5.19 C0.54 4.53 0.22 3.87 -0.12 3.19 C-4.41 3.19 -8.71 3.19 -13.12 3.19 C-13.12 2.53 -13.12 1.87 -13.12 1.19 C-8.75 0.12 -4.47 0 0 0 Z " fill="#007E02" transform="translate(724.125,656.8125)"/>
<path d="M0 0 C0 14.19 0 28.38 0 43 C-0.33 43 -0.66 43 -1 43 C-1 30.79 -1 18.58 -1 6 C-2.98 5.34 -4.96 4.68 -7 4 C-3.38 0 -3.38 0 0 0 Z " fill="#02760D" transform="translate(664,145)"/>
<path d="M0 0 C9.9 0 19.8 0 30 0 C30.33 0.66 30.66 1.32 31 2 C27.07 2.17 23.13 2.33 19.2 2.48 C17.21 2.56 15.21 2.65 13.22 2.73 C11.96 2.78 10.71 2.83 9.42 2.88 C7.68 2.95 7.68 2.95 5.91 3.02 C3 3 3 3 0 2 C0 1.34 0 0.68 0 0 Z " fill="#017A07" transform="translate(610,301)"/>
<path d="M0 0 C0 1.32 0 2.64 0 4 C-4.62 4 -9.24 4 -14 4 C-14.33 2.68 -14.66 1.36 -15 0 C-4.44 -1.33 -4.44 -1.33 0 0 Z " fill="#007F02" transform="translate(771,530)"/>
<path d="M0 0 C0.33 0 0.66 0 1 0 C2.3 11.37 2.57 22.65 1 34 C0.67 34 0.34 34 0 34 C-1.14 22.55 -1.42 11.43 0 0 Z " fill="#02760D" transform="translate(902,367)"/>
<path d="M0 0 C-1.39 2.77 -3.34 3.43 -6 5 C-6.87 5.74 -7.73 6.49 -8.62 7.25 C-9.41 7.83 -10.19 8.4 -11 9 C-11.99 8.67 -12.98 8.34 -14 8 C-15.19 5.44 -15.19 5.44 -16 3 C-14.27 2.49 -12.54 1.99 -10.81 1.5 C-9.85 1.22 -8.89 0.94 -7.89 0.66 C-5.15 0.03 -2.8 -0.12 0 0 Z " fill="#03760E" transform="translate(946,290)"/>
<path d="M0 0 C6.6 0 13.2 0 20 0 C20 0.33 20 0.66 20 1 C18.02 1.33 16.04 1.66 14 2 C14 2.99 14 3.98 14 5 C10.37 5 6.74 5 3 5 C2.67 4.01 2.34 3.02 2 2 C1.34 1.34 0.68 0.68 0 0 Z " fill="#007F02" transform="translate(509,529)"/>
<path d="M0 0 C3 1 3 1 4.19 3.06 C4.46 3.7 4.72 4.34 5 5 C9.03 5.35 9.03 5.35 13 5 C15.54 2.66 15.54 2.66 17 0 C17.33 2.64 17.66 5.28 18 8 C15.73 8.11 13.46 8.19 11.19 8.25 C9.92 8.3 8.66 8.34 7.36 8.39 C4 8 4 8 2.09 6.12 C1.04 4.07 0.41 2.27 0 0 Z " fill="#01760C" transform="translate(576,511)"/>
<path d="M0 0 C0.66 0.33 1.32 0.66 2 1 C2 2.65 2 4.3 2 6 C-1.3 6 -4.6 6 -8 6 C-7.34 5.67 -6.68 5.34 -6 5 C-6 4.34 -6 3.68 -6 3 C-6.99 2.67 -7.98 2.34 -9 2 C-5.54 -0.3 -4.05 -0.26 0 0 Z " fill="#007E02" transform="translate(424,537)"/>
<path d="M0 0 C3.3 0.33 6.6 0.66 10 1 C10 1.66 10 2.32 10 3 C8.02 3.66 6.04 4.32 4 5 C4.33 5.99 4.66 6.98 5 8 C3.35 7.67 1.7 7.34 0 7 C-0.93 3.99 -1.04 3.13 0 0 Z " fill="#01760B" transform="translate(701,65)"/>
<path d="M0 0 C1.21 0.03 1.21 0.03 2.44 0.06 C3.56 3.81 3.56 3.81 2.44 6.06 C1.45 6.06 0.46 6.06 -0.56 6.06 C-0.89 8.37 -1.22 10.68 -1.56 13.06 C-1.89 13.06 -2.22 13.06 -2.56 13.06 C-2.56 10.75 -2.56 8.44 -2.56 6.06 C-3.22 6.06 -3.88 6.06 -4.56 6.06 C-3.49 0.09 -3.49 0.09 0 0 Z " fill="#02760D" transform="translate(959.5625,354.9375)"/>
<path d="M0 0 C1.73 0.29 1.73 0.29 3.49 0.59 C4.8 0.82 4.8 0.82 6.12 1.06 C3.21 3.27 0.36 5.36 -2.88 7.06 C-3.53 6.73 -4.2 6.4 -4.88 6.06 C-4.88 4.74 -4.88 3.42 -4.88 2.06 C-7.51 1.73 -10.15 1.4 -12.88 1.06 C-12.88 0.73 -12.88 0.4 -12.88 0.06 C-8.27 -0.94 -4.63 -0.8 0 0 Z " fill="#02760D" transform="translate(951.875,399.9375)"/>
<path d="M0 0 C0.33 0 0.66 0 1 0 C1.94 5.53 2.12 10.84 2.06 16.44 C2.06 17.26 2.05 18.09 2.05 18.94 C2.04 20.96 2.02 22.98 2 25 C1.34 25 0.68 25 0 25 C-0.2 21.96 -0.38 18.92 -0.56 15.88 C-0.62 15.02 -0.67 14.16 -0.73 13.28 C-1 8.68 -1.01 4.54 0 0 Z " fill="#01780A" transform="translate(274,397)"/>
<path d="M0 0 C0.99 0.33 1.98 0.66 3 1 C2.86 3.69 2.71 6.38 2.56 9.06 C2.5 10.19 2.5 10.19 2.44 11.34 C2.18 15.95 1.72 20.44 1 25 C0.67 25 0.34 25 0 25 C-0.89 16.5 -0.99 8.49 0 0 Z " fill="#01770A" transform="translate(274,346)"/>
<path d="M0 0 C0 1.32 0 2.64 0 4 C-3.96 4 -7.92 4 -12 4 C-12 2.68 -12 1.36 -12 0 C-10.56 -0.2 -9.13 -0.38 -7.69 -0.56 C-6.89 -0.67 -6.09 -0.77 -5.26 -0.88 C-3 -1 -3 -1 0 0 Z " fill="#007F02" transform="translate(772,661)"/>
<path d="M0 0 C0.66 0 1.32 0 2 0 C3.5 1.63 4.93 3.33 6.31 5.06 C7.11 6.06 7.91 7.06 8.73 8.09 C11.26 11.33 13.67 14.62 16 18 C15.01 18 14.02 18 13 18 C0 4.41 0 4.41 0 0 Z " fill="#02760D" transform="translate(909,136)"/>
<path d="M0 0 C-0.33 0.99 -0.66 1.98 -1 3 C-0.13 5.17 -0.13 5.17 1 7 C-1.31 7.62 -1.31 7.62 -4 8 C-4.99 7.34 -5.98 6.68 -7 6 C-7.19 3.38 -7.19 3.38 -7 1 C-4.54 -0.23 -2.72 -0.07 0 0 Z " fill="#02760D" transform="translate(494,95)"/>
<path d="M0 0 C0.8 0.05 1.6 0.1 2.43 0.15 C3.68 0.23 3.68 0.23 4.96 0.32 C6.22 0.39 6.22 0.39 7.52 0.47 C9.6 0.6 11.69 0.74 13.77 0.88 C13.77 1.54 13.77 2.2 13.77 2.88 C11.02 2.93 8.27 2.97 5.52 3 C4.74 3.02 3.96 3.04 3.16 3.05 C-3.95 3.12 -3.95 3.12 -7.23 0.88 C-4.36 -0.08 -2.94 -0.19 0 0 Z " fill="#01780A" transform="translate(770.23046875,671.12109375)"/>
<path d="M0 0 C3 1 3 1 4.07 2.64 C4.39 3.34 4.71 4.03 5.04 4.75 C5.39 5.5 5.75 6.26 6.11 7.03 C6.46 7.83 6.82 8.62 7.19 9.44 C7.56 10.23 7.92 11.02 8.3 11.83 C11 17.7 11 17.7 11 20 C8 19 8 19 6.93 17.14 C6.61 16.35 6.29 15.56 5.96 14.75 C5.61 13.89 5.25 13.04 4.89 12.16 C4.54 11.26 4.18 10.36 3.81 9.44 C3.44 8.54 3.08 7.63 2.7 6.71 C1.79 4.47 0.89 2.24 0 0 Z " fill="#017909" transform="translate(566,490)"/>
<path d="M0 0 C1.65 0 3.3 0 5 0 C4.01 1.49 4.01 1.49 3 3 C2.54 5.74 2.54 5.74 2.38 8.69 C2.3 9.68 2.23 10.68 2.15 11.7 C2.1 12.46 2.05 13.22 2 14 C1.01 13.67 0.02 13.34 -1 13 C-1.03 11.58 -1.05 10.17 -1.06 8.75 C-1.07 7.96 -1.09 7.17 -1.1 6.36 C-1 4.09 -0.63 2.17 0 0 Z " fill="#01770B" transform="translate(337,353)"/>
<path d="M0 0 C5.15 -0.09 9.92 0.15 15 1 C15 1.66 15 2.32 15 3 C8.07 3 1.14 3 -6 3 C-6 2.67 -6 2.34 -6 2 C-4.02 2 -2.04 2 0 2 C0 1.34 0 0.68 0 0 Z " fill="#01770B" transform="translate(457,246)"/>
<path d="M0 0 C0.81 0.05 1.61 0.1 2.44 0.15 C3.28 0.2 4.12 0.26 4.99 0.32 C6.27 0.39 6.27 0.39 7.57 0.47 C9.67 0.6 11.77 0.74 13.87 0.88 C13.87 1.54 13.87 2.2 13.87 2.88 C11.1 2.93 8.33 2.97 5.55 3 C4.77 3.02 3.98 3.04 3.17 3.05 C2.42 3.06 1.66 3.07 0.88 3.07 C-0.17 3.09 -0.17 3.09 -1.23 3.11 C-3.13 2.88 -3.13 2.88 -6.13 0.88 C-3.78 -0.3 -2.61 -0.17 0 0 Z " fill="#017809" transform="translate(945.1328125,423.12109375)"/>
<path d="M0 0 C-3.57 2.38 -5.27 2.27 -9.5 2.25 C-10.64 2.26 -11.79 2.26 -12.97 2.27 C-16 2 -16 2 -19 0 C-13.75 -2.62 -5.54 -1.2 0 0 Z " fill="#02760D" transform="translate(753,302)"/>
<path d="M0 0 C2.4 3.84 2.64 7.56 3 12 C2.67 12.66 2.34 13.32 2 14 C-4 6.8 -4 6.8 -4 2 C-3.34 2 -2.68 2 -2 2 C-2 2.66 -2 3.32 -2 4 C-1.34 4 -0.68 4 0 4 C0 2.68 0 1.36 0 0 Z " fill="#36973E" transform="translate(554,422)"/>
<path d="M0 0 C2.12 3.53 2.53 6.94 3 11 C1.02 11 -0.96 11 -3 11 C-2.53 6.94 -2.12 3.53 0 0 Z " fill="#02760D" transform="translate(744,83)"/>
<path d="M0 0 C0.66 0 1.32 0 2 0 C2.1 0.62 2.21 1.24 2.31 1.88 C2.88 4.37 2.88 4.37 6 6 C3.69 7.98 1.38 9.96 -1 12 C-2.24 7.03 -1.37 4.84 0 0 Z " fill="#01760C" transform="translate(794,108)"/>
<path d="M0 0 C-3 2 -3 2 -5 2 C-4.81 3.95 -4.81 3.95 -4 6 C-2.02 7.28 -2.02 7.28 0 8 C-1.98 8.33 -3.96 8.66 -6 9 C-8.62 5.94 -9 5.27 -9 1 C-5.8 -0.07 -3.34 -0.07 0 0 Z " fill="#01760B" transform="translate(542,90)"/>
<path d="M0 0 C0.66 0 1.32 0 2 0 C2 0.66 2 1.32 2 2 C3.98 1.34 5.96 0.68 8 0 C7.01 3.96 6.02 7.92 5 12 C1.7 7.59 1.13 5.23 0 0 Z " fill="#04770F" transform="translate(752,86)"/>
<path d="M0 0 C3.47 1.98 3.47 1.98 7 4 C3.87 6.64 0.91 7.84 -3 9 C-2.44 5.66 -1.65 2.97 0 0 Z " fill="#02760D" transform="translate(926,248)"/>
<path d="M0 0 C0 3.69 -1.28 5.78 -3 9 C-4.98 8.01 -6.96 7.02 -9 6 C-8.67 5.01 -8.34 4.02 -8 3 C-5.06 1.88 -5.06 1.88 -2 1 C-1.34 0.67 -0.68 0.34 0 0 Z " fill="#02760D" transform="translate(922,240)"/>
<path d="M0 0 C0.33 0 0.66 0 1 0 C1.33 2.31 1.66 4.62 2 7 C3.98 7 5.96 7 8 7 C8 8.32 8 9.64 8 11 C1.25 11.12 1.25 11.12 -1 10 C-0.67 6.7 -0.34 3.4 0 0 Z " fill="#02760D" transform="translate(330,399)"/>
<path d="M0 0 C1.98 0 3.96 0 6 0 C6.08 0.62 6.16 1.24 6.25 1.88 C6.91 4.53 6.91 4.53 11 6 C7.7 6 4.4 6 1 6 C0.67 4.02 0.34 2.04 0 0 Z " fill="#007E02" transform="translate(824,665)"/>
<path d="M0 0 C0 0.99 0 1.98 0 3 C0.96 5.33 0.96 5.33 4 7 C1.19 8.12 1.19 8.12 -2 9 C-2.99 8.34 -3.98 7.68 -5 7 C-4.19 4.06 -4.19 4.06 -3 1 C-2.01 0.67 -1.02 0.34 0 0 Z " fill="#02760D" transform="translate(410,154)"/>
<path d="M0 0 C1.26 0.11 2.53 0.22 3.83 0.34 C4.79 0.43 5.76 0.53 6.75 0.62 C6.75 1.28 6.75 1.95 6.75 2.62 C4.69 2.65 2.63 2.67 0.56 2.69 C-0.59 2.7 -1.73 2.71 -2.92 2.72 C-5.84 2.64 -8.41 2.3 -11.25 1.62 C-7.49 -0.87 -4.38 -0.41 0 0 Z " fill="#01780A" transform="translate(809.25,674.375)"/>
<path d="M0 0 C5.28 0.33 10.56 0.66 16 1 C16 1.66 16 2.32 16 3 C10.72 3 5.44 3 0 3 C0 2.01 0 1.02 0 0 Z " fill="#017909" transform="translate(660,17)"/>
<path d="M0 0 C3 1 3 1 4.61 3.87 C5.13 5.05 5.65 6.22 6.19 7.44 C6.72 8.61 7.25 9.79 7.79 11 C9 14 9 14 9 16 C8.34 16 7.68 16 7 16 C4.69 10.72 2.38 5.44 0 0 Z " fill="#017909" transform="translate(420,329)"/>
<path d="M0 0 C0.8 0.01 1.6 0.02 2.42 0.03 C3.03 0.04 3.63 0.05 4.25 0.06 C3.92 1.05 3.59 2.04 3.25 3.06 C-0.71 3.06 -4.67 3.06 -8.75 3.06 C-8.75 2.4 -8.75 1.74 -8.75 1.06 C-5.76 0.19 -3.11 -0.05 0 0 Z " fill="#01770B" transform="translate(460.75,270.9375)"/>
<path d="M0 0 C1.98 0 3.96 0 6 0 C5.01 0.5 5.01 0.5 4 1 C4.5 1.62 4.99 2.24 5.5 2.88 C7 5 7 5 7 7 C4.03 6.5 4.03 6.5 1 6 C0.67 4.02 0.34 2.04 0 0 Z " fill="#02760D" transform="translate(528,78)"/>
<path d="M0 0 C0.33 0.99 0.66 1.98 1 3 C-5.43 3.1 -11.66 3.15 -18 2 C-18 1.67 -18 1.34 -18 1 C-16.13 0.83 -14.25 0.66 -12.38 0.5 C-11.33 0.41 -10.29 0.31 -9.21 0.22 C-6.13 0.01 -3.09 -0.04 0 0 Z " fill="#01760C" transform="translate(742,669)"/>
<path d="M0 0 C0.33 0 0.66 0 1 0 C1.33 5.28 1.66 10.56 2 16 C1.34 16 0.68 16 0 16 C-1.29 11.88 -2.26 8.33 -2 4 C-1.34 4 -0.68 4 0 4 C0 2.68 0 1.36 0 0 Z " fill="#01770A" transform="translate(460,473)"/>
<path d="M0 0 C1.98 0 3.96 0 6 0 C6.33 1.98 6.66 3.96 7 6 C5.02 6 3.04 6 1 6 C1.33 4.35 1.66 2.7 2 1 C1.34 0.67 0.68 0.34 0 0 Z " fill="#007E02" transform="translate(825,534)"/>
<path d="M0 0 C0.99 0.33 1.98 0.66 3 1 C3 2.65 3 4.3 3 6 C0.66 5.74 -1.68 5.41 -4 5 C-4.33 4.34 -4.66 3.68 -5 3 C-2.69 1.44 -2.69 1.44 0 0 Z " fill="#02760D" transform="translate(953,411)"/>
<path d="M0 0 C2.59 5.17 3.18 8.02 2.56 13.75 C2.41 15.23 2.41 15.23 2.25 16.73 C2.17 17.48 2.09 18.23 2 19 C1.67 19 1.34 19 1 19 C1 15.7 1 12.4 1 9 C0.34 9 -0.32 9 -1 9 C-0.67 6.03 -0.34 3.06 0 0 Z " fill="#02760D" transform="translate(970,350)"/>
<path d="M0 0 C1.94 0.75 1.94 0.75 4 2 C4.75 4.12 4.75 4.12 5 6 C2.69 5.67 0.38 5.34 -2 5 C-2 2 -2 2 0 0 Z " fill="#02760D" transform="translate(941,301)"/>
<path d="M0 0 C0.99 0.66 1.98 1.32 3 2 C2.46 2.47 1.91 2.94 1.36 3.43 C0.64 4.05 -0.08 4.67 -0.81 5.31 C-1.52 5.93 -2.23 6.54 -2.96 7.18 C-4.7 8.73 -6.37 10.33 -8 12 C-8.33 11.01 -8.66 10.02 -9 9 C-6.03 6.03 -3.06 3.06 0 0 Z " fill="#007B06" transform="translate(428,257)"/>
<path d="M0 0 C3.51 4.21 7 9.43 7 15 C6.34 15 5.68 15 5 15 C4.16 13.25 3.33 11.5 2.5 9.75 C2.04 8.78 1.57 7.8 1.09 6.8 C0 4 0 4 0 0 Z " fill="#017909" transform="translate(493,331)"/>
<path d="M0 0 C0.99 0.33 1.98 0.66 3 1 C3 5.62 3 10.24 3 15 C2.67 15 2.34 15 2 15 C2 12.36 2 9.72 2 7 C1.01 7 0.02 7 -1 7 C-1.04 5 -1.04 3 -1 1 C-0.67 0.67 -0.34 0.34 0 0 Z " fill="#3F9C47" transform="translate(475,296)"/>
<path d="M0 0 C4.5 -0.36 4.5 -0.36 6.81 1.31 C8 3 8 3 8 6 C5.03 5.5 5.03 5.5 2 5 C2 4.01 2 3.02 2 2 C1.34 1.34 0.68 0.68 0 0 Z " fill="#007E03" transform="translate(424,668)"/>
<path d="M0 0 C3.09 0.1 5.76 0.4 8.75 1.12 C6.75 3.12 6.75 3.12 4.66 3.39 C3.86 3.39 3.07 3.38 2.25 3.38 C1.46 3.38 0.66 3.39 -0.16 3.39 C-2.25 3.12 -2.25 3.12 -4.25 1.12 C-3.25 0.12 -3.25 0.12 0 0 Z " fill="#02760D" transform="translate(450.25,324.875)"/>
<path d="M0 0 C1.63 0.57 3.25 1.15 4.88 1.75 C5.78 2.07 6.68 2.4 7.62 2.73 C10 4 10 4 12 8 C7.71 6.02 3.42 4.04 -1 2 C-0.67 1.34 -0.34 0.68 0 0 Z " fill="#01770A" transform="translate(782,306)"/>
<path d="M0 0 C0 2.31 0 4.62 0 7 C-2.31 6.01 -4.62 5.02 -7 4 C-3.38 0 -3.38 0 0 0 Z " fill="#04760F" transform="translate(664,145)"/>
<path d="M0 0 C3.3 0.33 6.6 0.66 10 1 C10 1.66 10 2.32 10 3 C7.03 2.67 4.06 2.34 1 2 C0.67 3.32 0.34 4.64 0 6 C-0.66 5.67 -1.32 5.34 -2 5 C-1.34 3.35 -0.68 1.7 0 0 Z " fill="#037B09" transform="translate(699,79)"/>
<path d="M0 0 C0.66 0.66 1.32 1.32 2 2 C4.57 2.65 4.57 2.65 7 3 C6.34 5.31 5.68 7.62 5 10 C1.92 7.23 0.31 4.94 -1 1 C-0.67 0.67 -0.34 0.34 0 0 Z " fill="#04760F" transform="translate(620,59)"/>
<path d="M0 0 C5.28 0.33 10.56 0.66 16 1 C16 1.33 16 1.66 16 2 C9.63 2.75 3.42 3.1 -3 3 C-2.01 2.67 -1.02 2.34 0 2 C0 1.34 0 0.68 0 0 Z " fill="#02760D" transform="translate(537,669)"/>
<path d="M0 0 C3.43 3.76 4.56 8.23 6 13 C5.34 13 4.68 13 4 13 C3.14 11.21 2.28 9.42 1.44 7.62 C0.96 6.63 0.49 5.63 -0 4.6 C-0.5 3.31 -0.5 3.31 -1 2 C-0.67 1.34 -0.34 0.68 0 0 Z " fill="#01770A" transform="translate(534,418)"/>
<path d="M0 0 C2.98 4.48 4 8.64 4 14 C3.34 14 2.68 14 2 14 C1.47 12.04 0.95 10.09 0.44 8.12 C0.15 7.03 -0.14 5.94 -0.44 4.82 C-1 2 -1 2 0 0 Z " fill="#017809" transform="translate(526,325)"/>
<path d="M0 0 C0 1.65 0 3.3 0 5 C-4.75 3.12 -4.75 3.12 -7 2 C-7 1.34 -7 0.68 -7 0 C-4.33 -1.33 -2.83 -0.67 0 0 Z " fill="#02760D" transform="translate(433,680)"/>
<path d="M0 0 C2.97 0.5 2.97 0.5 6 1 C5.67 2.65 5.34 4.3 5 6 C2.69 6 0.38 6 -2 6 C-1.01 5.34 -0.02 4.68 1 4 C0.67 2.68 0.34 1.36 0 0 Z " fill="#007E02" transform="translate(360,545)"/>
<path d="M0 0 C1.65 0 3.3 0 5 0 C5.66 1.65 6.32 3.3 7 5 C6 6 6 6 2.94 6.06 C1.48 6.03 1.48 6.03 0 6 C0.66 5.67 1.32 5.34 2 5 C2 4.01 2 3.02 2 2 C1.34 1.34 0.68 0.68 0 0 Z " fill="#007F02" transform="translate(479,531)"/>
<path d="M0 0 C3.45 1.43 5.1 3.1 7.25 6.12 C8.03 7.21 8.03 7.21 8.83 8.32 C9.41 9.15 9.41 9.15 10 10 C4.98 8.57 2.99 6.09 0 2 C0 1.34 0 0.68 0 0 Z " fill="#01760C" transform="translate(461,490)"/>
<path d="M0 0 C-0.96 0.59 -0.96 0.59 -1.94 1.19 C-4.44 3.38 -4.65 4.76 -5 8 C-5.66 8 -6.32 8 -7 8 C-7.33 5.69 -7.66 3.38 -8 1 C-5.29 -0.35 -2.99 -0.07 0 0 Z " fill="#017809" transform="translate(344,449)"/>
<path d="M0 0 C2.68 2.31 3.6 4.24 4.56 7.62 C5.2 9.98 5.2 9.98 6 12 C6.66 12.33 7.32 12.66 8 13 C7.01 13 6.02 13 5 13 C2.25 8.57 0.52 5.28 0 0 Z " fill="#077811" transform="translate(666,359)"/>
<path d="M0 0 C1.65 0.33 3.3 0.66 5 1 C5 1.99 5 2.98 5 4 C2.69 4.33 0.38 4.66 -2 5 C-1.34 3.35 -0.68 1.7 0 0 Z " fill="#007F02" transform="translate(854,537)"/>
<path d="M0 0 C2.25 2.05 3 3.01 4 6 C0.33 7.18 -3.17 7.07 -7 7 C-7 6.67 -7 6.34 -7 6 C-6.22 5.94 -5.43 5.88 -4.62 5.81 C-3.76 5.54 -2.89 5.28 -2 5 C-0.63 2.52 -0.63 2.52 0 0 Z " fill="#02760D" transform="translate(418,525)"/>
<path d="M0 0 C3.43 3.76 4.56 8.23 6 13 C5.34 13 4.68 13 4 13 C2.35 9.04 0.7 5.08 -1 1 C-0.67 0.67 -0.34 0.34 0 0 Z " fill="#017909" transform="translate(430,347)"/>
<path d="M0 0 C3 1 3 1 4.2 2.74 C4.55 3.45 4.89 4.15 5.25 4.88 C5.61 5.57 5.96 6.27 6.33 6.99 C7 9 7 9 6 12 C0 3 0 3 0 0 Z " fill="#01770B" transform="translate(871,261)"/>
<path d="M0 0 C4.83 2.41 7.7 5.86 11 10 C6.23 8.6 3.04 5.85 0 2 C0 1.34 0 0.68 0 0 Z " fill="#01760C" transform="translate(817,190)"/>
</svg>
